<?xml version="1.0" encoding="utf-8"?>
<!-- Generator: Adobe Illustrator 19.0.0, SVG Export Plug-In . SVG Version: 6.00 Build 0)  -->
<svg version="1.1" id="Layer_1" xmlns="http://www.w3.org/2000/svg" xmlns:xlink="http://www.w3.org/1999/xlink" x="0px" y="0px"
	 viewBox="569 -94 1750 980" enable-background="new 569 -94 1750 980" xml:space="preserve">
<rect x="569" y="-94" fill="#26136E" width="1750" height="980"/>
<g>
	<path fill="#666666" d="M987.5,189.5c1.4,0,2.5-1.1,2.5-2.5s-1.1-2.5-2.5-2.5s-2.5,1.1-2.5,2.5C985,188.3,986.1,189.5,987.5,189.5
		L987.5,189.5z"/>
	<path fill="#666666" d="M1125.2,440.3c1.4,0,2.5-1.1,2.5-2.5s-1.1-2.5-2.5-2.5c-1.4,0-2.5,1.1-2.5,2.5S1123.9,440.3,1125.2,440.3
		L1125.2,440.3z"/>
	<path fill="#666666" d="M992.4,562.4c1.4,0,2.5-1.1,2.5-2.4s-1.1-2.5-2.5-2.5c-1.4,0-2.5,1.1-2.5,2.5S991.1,562.4,992.4,562.4
		L992.4,562.4z"/>
	<path fill="#666666" d="M1044.3,572.3c1.4,0,2.5-1.1,2.5-2.5s-1.1-2.5-2.5-2.5c-1.4,0-2.5,1.1-2.5,2.5
		C1041.8,571.1,1042.9,572.3,1044.3,572.3L1044.3,572.3z"/>
	<path fill="#666666" d="M1259.1,757.4c1.4,0,2.5-1.1,2.5-2.5s-1.1-2.5-2.5-2.5s-2.5,1.1-2.5,2.5
		C1256.6,756.4,1257.8,757.4,1259.1,757.4L1259.1,757.4z"/>
	<path fill="#666666" d="M1192.5,801.9c1.4,0,2.5-1.1,2.5-2.5s-1.1-2.4-2.5-2.4s-2.5,1.1-2.5,2.4
		C1190,800.8,1191.1,801.9,1192.5,801.9L1192.5,801.9z"/>
	<path fill="#666666" d="M750.4,599.4c1.4,0,2.5-1.1,2.5-2.5s-1.1-2.5-2.5-2.5c-1.4,0-2.5,1.1-2.5,2.5
		C748,598.3,749.1,599.4,750.4,599.4L750.4,599.4z"/>
	<path fill="#666666" d="M1370.3,552.5c1.4,0,2.5-1.1,2.5-2.5s-1.1-2.5-2.5-2.5c-1.4,0-2.5,1.1-2.5,2.5S1368.9,552.5,1370.3,552.5
		L1370.3,552.5z"/>
	<path fill="#666666" d="M1599.9,656.2c1.4,0,2.5-1.1,2.5-2.5s-1.1-2.5-2.5-2.5s-2.5,1.1-2.5,2.5
		C1597.4,655.1,1598.6,656.2,1599.9,656.2L1599.9,656.2z"/>
	<path fill="#666666" d="M1814.8,453.7c1.4,0,2.5-1.1,2.5-2.5s-1.1-2.5-2.5-2.5s-2.5,1.1-2.5,2.5
		C1812.3,452.6,1813.4,453.7,1814.8,453.7L1814.8,453.7z"/>
	<path fill="#666666" d="M1972.8,258.6c1.4,0,2.5-1.1,2.5-2.5s-1.1-2.5-2.5-2.5s-2.5,1.1-2.5,2.5S1971.5,258.6,1972.8,258.6
		L1972.8,258.6z"/>
	<path fill="#666666" d="M1933.3,164.8c1.4,0,2.5-1.1,2.5-2.5s-1.1-2.5-2.5-2.5s-2.5,1.1-2.5,2.5
		C1930.8,163.7,1931.9,164.8,1933.3,164.8L1933.3,164.8z"/>
	<path fill="#666666" d="M2045,113.8c1.4,0,2.5-1.1,2.5-2.4c0-1.4-1.1-2.5-2.5-2.5s-2.4,1.1-2.4,2.5
		C2042.5,112.7,2043.6,113.8,2045,113.8L2045,113.8z"/>
	<path fill="#666666" d="M2123.5,108c1.4,0,2.5-1.1,2.5-2.5s-1.1-2.5-2.5-2.5s-2.5,1.1-2.5,2.5S2122.1,108,2123.5,108L2123.5,108z"
		/>
	<path fill="#666666" d="M2024.5,68c1.4,0,2.5-1.1,2.5-2.5s-1.1-2.5-2.5-2.5s-2.5,1.1-2.5,2.5C2022,67,2023.1,68,2024.5,68
		L2024.5,68z"/>
	<path fill="#666666" d="M2244.5-50c1.4,0,2.5-1.1,2.5-2.5s-1.1-2.5-2.5-2.5s-2.5,1.1-2.5,2.5C2242-51.2,2243.1-50,2244.5-50
		L2244.5-50z"/>
	<path fill="#666666" d="M2234.6,140.1c1.4,0,2.5-1.1,2.5-2.5s-1.1-2.5-2.5-2.5c-1.4,0-2.5,1.1-2.5,2.5S2233.2,140.1,2234.6,140.1
		L2234.6,140.1z"/>
	<path fill="#666666" d="M2111.1,382.1c1.4,0,2.5-1.1,2.5-2.5s-1.1-2.5-2.5-2.5c-1.4,0-2.5,1.1-2.5,2.5S2109.7,382.1,2111.1,382.1
		L2111.1,382.1z"/>
	<path fill="#666666" d="M2222.2,488.3c1.4,0,2.5-1.1,2.5-2.5s-1.1-2.5-2.5-2.5s-2.5,1.1-2.5,2.5S2220.9,488.3,2222.2,488.3
		L2222.2,488.3z"/>
	<path fill="#666666" d="M2163,663.6c1.4,0,2.5-1.1,2.5-2.5s-1.1-2.4-2.5-2.4s-2.5,1.1-2.5,2.4
		C2160.5,662.5,2161.6,663.6,2163,663.6L2163,663.6z"/>
	<path fill="#666666" d="M1844.4,648.8c1.4,0,2.5-1.1,2.5-2.5s-1.1-2.5-2.5-2.5s-2.5,1.1-2.5,2.5S1843,648.8,1844.4,648.8
		L1844.4,648.8z"/>
	<path fill="#666666" d="M1713.5,769.8c1.4,0,2.5-1.1,2.5-2.5s-1.1-2.5-2.5-2.5s-2.5,1.1-2.5,2.5
		C1711.1,768.7,1712.2,769.8,1713.5,769.8L1713.5,769.8z"/>
	<path fill="#666666" d="M1597.5,33.9c1.4,0,2.4-1.1,2.4-2.5s-1.1-2.5-2.4-2.5c-1.4,0-2.5,1.1-2.5,2.5S1596.1,33.9,1597.5,33.9
		L1597.5,33.9z"/>
	<path fill="#666666" d="M838.9,288.4c2.2,0,4.1-1.8,4.1-4.1c0-2.2-1.9-4.1-4.1-4.1c-2.3,0-4.1,1.9-4.1,4.1
		C834.8,286.6,836.6,288.4,838.9,288.4L838.9,288.4z"/>
	<path fill="#666666" d="M1145.1,631.7c2.2,0,4.1-1.8,4.1-4.1c0-2.2-1.9-4.1-4.1-4.1c-2.3,0-4.1,1.9-4.1,4.1
		S1142.8,631.7,1145.1,631.7L1145.1,631.7z"/>
	<path fill="#666666" d="M626.5,789.7c2.3,0,4.1-1.9,4.1-4.1c0-2.2-1.8-4.1-4.1-4.1c-2.2,0-4.1,1.9-4.1,4.1
		C622.4,787.9,624.3,789.7,626.5,789.7L626.5,789.7z"/>
	<path fill="#666666" d="M1574.8,821.8c2.3,0,4.1-1.8,4.1-4.1c0-2.2-1.8-4.1-4.1-4.1c-2.2,0-4.1,1.9-4.1,4.1
		C1570.7,820,1572.5,821.8,1574.8,821.8L1574.8,821.8z"/>
	<path fill="#666666" d="M1765.4,387.2c2.3,0,4.1-1.9,4.1-4.1c0-2.3-1.8-4.1-4.1-4.1c-2.2,0-4.1,1.8-4.1,4.1
		C1761.3,385.3,1763.1,387.2,1765.4,387.2L1765.4,387.2z"/>
	<path fill="#666666" d="M2160.6,586.5c2.3,0,4.1-1.8,4.1-4.1c0-2.2-1.8-4.1-4.1-4.1c-2.2,0-4.1,1.9-4.1,4.1
		C2156.5,584.7,2158.4,586.5,2160.6,586.5L2160.6,586.5z"/>
	<path fill="#666666" d="M1507.9,133.1c2.3,0,4.1-1.9,4.1-4.1c0-2.3-1.8-4.1-4.1-4.1c-2.2,0-4.1,1.8-4.1,4.1
		S1505.6,133.1,1507.9,133.1L1507.9,133.1z"/>
	<path fill="#666666" d="M2159.2-27.6c0-2.3-1.9-4.1-4.1-4.1c-2.2,0-4.1,1.8-4.1,4.1c0,2.2,1.9,4.1,4.1,4.1"/>
	<path fill="#666666" d="M1249.7,355.9c0.9,0,1.7-0.8,1.7-1.7c0-0.9-0.8-1.7-1.7-1.7c-0.9,0-1.7,0.8-1.7,1.7
		C1248,355.2,1248.8,355.9,1249.7,355.9L1249.7,355.9z"/>
	<path fill="#666666" d="M1248,69.9c0.9,0,1.7-0.8,1.7-1.7s-0.7-1.7-1.7-1.7c-0.9,0-1.7,0.8-1.7,1.7
		C1246.3,69.1,1247.1,69.9,1248,69.9L1248,69.9z"/>
	<path fill="#666666" d="M1886.4,206.6c0.9,0,1.7-0.8,1.7-1.7c0-0.9-0.8-1.7-1.7-1.7c-0.9,0-1.7,0.8-1.7,1.7
		C1884.7,205.9,1885.4,206.6,1886.4,206.6L1886.4,206.6z"/>
	<path fill="#666666" d="M2135.8,206.6c0.9,0,1.7-0.8,1.7-1.7c0-0.9-0.7-1.7-1.7-1.7c-0.9,0-1.7,0.8-1.7,1.7
		C2134.1,205.9,2134.8,206.6,2135.8,206.6L2135.8,206.6z"/>
	<path fill="#666666" d="M2197.5,426.4c0.9,0,1.7-0.7,1.7-1.7s-0.8-1.7-1.7-1.7s-1.7,0.8-1.7,1.7S2196.6,426.4,2197.5,426.4
		L2197.5,426.4z"/>
	<path fill="#666666" d="M1612.2,446.2c0.9,0,1.7-0.8,1.7-1.7s-0.8-1.7-1.7-1.7c-0.9,0-1.7,0.7-1.7,1.7S1611.3,446.2,1612.2,446.2
		L1612.2,446.2z"/>
	<path fill="#666666" d="M1708.6,638.8c0.9,0,1.7-0.8,1.7-1.7s-0.8-1.7-1.7-1.7c-0.9,0-1.7,0.8-1.7,1.7S1707.6,638.8,1708.6,638.8
		L1708.6,638.8z"/>
	<path fill="#666666" d="M997.4,315.3c0.9,0,1.7-0.7,1.7-1.7s-0.8-1.7-1.7-1.7s-1.7,0.8-1.7,1.7S996.4,315.3,997.4,315.3
		L997.4,315.3z"/>
	<path fill="#666666" d="M826.9,122.1c0.9,0,1.7-0.8,1.7-1.7s-0.8-1.7-1.7-1.7s-1.7,0.8-1.7,1.7C825.2,121.4,826,122.1,826.9,122.1
		L826.9,122.1z"/>
	<path fill="#666666" d="M822,246.2c0.9,0,1.7-0.8,1.7-1.7c0-0.9-0.8-1.7-1.7-1.7s-1.7,0.8-1.7,1.7
		C820.3,245.4,821.1,246.2,822,246.2L822,246.2z"/>
	<path fill="#666666" d="M728.2,419c0.9,0,1.7-0.8,1.7-1.7s-0.8-1.7-1.7-1.7c-0.9,0-1.7,0.7-1.7,1.7S727.2,419,728.2,419L728.2,419z
		"/>
	<path fill="#666666" d="M784.8,84.1c0.9,0,1.7-0.7,1.7-1.7c0-0.9-0.8-1.7-1.7-1.7c-0.9,0-1.7,0.8-1.7,1.7
		C783.1,83.4,783.9,84.1,784.8,84.1L784.8,84.1z"/>
	<path fill="#666666" d="M940.6,231.4c0.9,0,1.7-0.8,1.7-1.7c0-0.9-0.7-1.7-1.7-1.7c-0.9,0-1.7,0.8-1.7,1.7
		C938.8,230.6,939.6,231.4,940.6,231.4L940.6,231.4z"/>
	<path fill="#666666" d="M763.1,781.6c0.9,0,1.7-0.8,1.7-1.7s-0.8-1.7-1.7-1.7c-0.9,0-1.7,0.8-1.7,1.7S762.1,781.6,763.1,781.6
		L763.1,781.6z"/>
	<path fill="#666666" d="M1113.4,846.2c0.9,0,1.7-0.8,1.7-1.7s-0.7-1.7-1.7-1.7c-0.9,0-1.7,0.8-1.7,1.7
		C1111.7,845.5,1112.5,846.2,1113.4,846.2L1113.4,846.2z"/>
	<path fill="#666666" d="M2261.7,790.9c0.9,0,1.7-0.8,1.7-1.7s-0.8-1.7-1.7-1.7c-0.9,0-1.7,0.8-1.7,1.7
		C2260.1,790.2,2260.8,790.9,2261.7,790.9L2261.7,790.9z"/>
	<path fill="#666666" d="M1901.9,553.1c0.9,0,1.7-0.8,1.7-1.7s-0.8-1.7-1.7-1.7c-0.9,0-1.7,0.7-1.7,1.7S1901,553.1,1901.9,553.1
		L1901.9,553.1z"/>
</g>
</svg>
