<?xml version="1.0" encoding="utf-8"?>
<!-- Generator: Adobe Illustrator 19.0.0, SVG Export Plug-In . SVG Version: 6.00 Build 0)  -->
<svg version="1.1" id="Layer_1" xmlns="http://www.w3.org/2000/svg" xmlns:xlink="http://www.w3.org/1999/xlink" x="0px" y="0px"
	 viewBox="0 0 125 125" enable-background="new 0 0 125 125" xml:space="preserve">
<g>
	<circle id="XMLID_2_" fill-rule="evenodd" clip-rule="evenodd" fill="#FAE2AA" cx="62.5" cy="62.1" r="52.7"/>
	<path id="XMLID_3_" fill-rule="evenodd" clip-rule="evenodd" fill="#BC8C50" d="M80.6,76.5c2,0,3.6-1.6,3.6-3.6
		c0-2-1.6-3.6-3.6-3.6c-2,0-3.6,1.6-3.6,3.6C76.9,74.8,78.6,76.5,80.6,76.5z"/>
	<path id="XMLID_4_" fill-rule="evenodd" clip-rule="evenodd" fill="#ECCD94" d="M106.1,52.5c0,27.7-22.5,50.1-50.2,50.1
		c-19.2,0-35.8-10.8-44.3-26.6c6.1,22.3,26.5,38.8,50.8,38.8c29.1,0,52.7-23.6,52.7-52.7c0-17.2-8.2-32.5-21-42.1
		C101.6,28.8,106.1,40.1,106.1,52.5z"/>
	<path id="XMLID_5_" fill-rule="evenodd" clip-rule="evenodd" fill="#DABD86" d="M72.5,10.4C68,15.6,59.1,24.3,46.8,28.8
		c-10.1,3.6-18.7,1.7-24.4-0.8c6.4-7.5,15-13.3,25.1-16.3C55.9,9.1,64.5,8.8,72.5,10.4L72.5,10.4z M115,57.4c-0.3-3.4-1-6.8-2-10.3
		c-2.2-7.4-5.9-14-10.6-19.4c0,0.1-0.1,0.1-0.1,0.2c-3.7,6.6-29,21.3-46.4,26.5S63.7,52,35,60.5c-15.3,4.5-22.1,4.1-25.2,2.7
		c0.1,4.6,0.8,9.3,2.2,13.9c0.1,0.2,0.2,0.5,0.2,0.7c8.3,0.9,22.2-3.2,33.5-6.5c14-4.2,18.4-5.5,42.9-12.7
		C101.5,54.7,109.9,55.7,115,57.4L115,57.4z M108.8,87.2c-4.8-1-12.1-1.3-21.8,1.6c-18.9,5.6-30.9,9.2-41.4,12.3
		c-4,1.2-7.2,3.8-9.7,6.6c-6.5-3.7-12.1-8.9-16.5-15.1l93.8-16.7C112.3,79.9,110.8,83.6,108.8,87.2z"/>
	<path id="XMLID_9_" fill-rule="evenodd" clip-rule="evenodd" fill="#C09D6D" d="M106.1,52.5c0,1.2,0,2.3-0.1,3.4
		c3.8,0.1,6.7,0.7,9,1.5c-0.1-0.8-0.2-1.5-0.3-2.3c-0.4-2.7-0.9-5.3-1.7-8c-1-3.4-2.3-6.6-3.9-9.7c-1.9-3.5-4.1-6.8-6.7-9.8
		c0,0.1-0.1,0.1-0.1,0.2c-0.3,0.6-0.9,1.3-1.5,2C104.2,36.6,106.1,44.3,106.1,52.5L106.1,52.5z M98.8,78.5c-2,3.3-4.4,6.4-7.1,9.1
		c7.4-1.6,13.1-1.2,17.1-0.4c1.9-3.6,3.4-7.3,4.5-11.3L98.8,78.5L98.8,78.5z M44.9,101.4c-7.5-1.7-14.4-5.1-20.2-9.7l-5.2,0.9
		c3,4.2,6.6,8,10.7,11.1l0.2,0.2l0.5,0.3c1.7,1.2,3.4,2.4,5.2,3.4C38.3,105.1,41.3,102.7,44.9,101.4L44.9,101.4z M12.7,77.9
		c-0.4-0.6-0.7-1.2-1-1.8c0.1,0.3,0.2,0.7,0.3,1c0.1,0.2,0.2,0.5,0.2,0.7C12.4,77.9,12.6,77.9,12.7,77.9z"/>
	<path id="XMLID_14_" fill-rule="evenodd" clip-rule="evenodd" fill="#BC8C50" d="M93.6,19.6L72.1,26c-9.8,2.9-8,5.3-22.8,9.7
		c-12.8,3.8-24.6,2.4-32.2-0.2c-1.5,2.6-2.8,5.3-3.9,8.2c7.9,2.2,22,4.4,38.5-1.1c25.5-8.5,14.7-8.2,31.7-13.2l16.1-4.8
		C97.6,22.7,95.7,21.1,93.6,19.6L93.6,19.6z M103.8,94.8c-13.7-0.6-36.1,1.6-56.8,17.6c9.6,3,20.2,3.2,30.5,0.1
		C88.3,109.4,97.3,103.1,103.8,94.8L103.8,94.8z M114.1,72.6c-0.3,1.4-0.6,2.8-1,4.1L62.4,91.8L28.1,102c-5.4-4.6-9.8-10.4-13-17
		c3.5-1.1,11-3.4,16.8-5c7.9-2.1,15.2,1.9,24.9,1.8c9.6-0.1,11.4-4.6,16.1-4.6c4.7,0,11.8,4.1,20.7,1.4L114.1,72.6L114.1,72.6z
		 M113.6,49.3c-2.8-1.1-7.4-1.7-14.4,0.4C84.3,54.1,71.3,58,58.2,61.9c-13,3.9-26.1,7.8-31.4,9.3c-3.7,1.1-10.9,2-16.1,0.7
		c-0.2-1.2-0.4-2.4-0.6-3.6c3.8,0.9,10.2,1.1,20.1-1.8c19.6-5.8,43-12.8,53.5-15.9c8-2.4,19.1-9.4,24.2-15.2
		c2.1,3.6,3.8,7.5,5.1,11.7C113.2,47.9,113.4,48.6,113.6,49.3z"/>
	<path id="XMLID_19_" fill-rule="evenodd" clip-rule="evenodd" fill="#A4712E" d="M97.9,25l1.5-0.4c-1.1-1.1-2.2-2.1-3.4-3.1l0,0
		l0,0l-0.1-0.1l-0.3-0.2l-0.1-0.1c-0.4-0.3-0.9-0.7-1.3-1C95.5,21.6,96.8,23.3,97.9,25L97.9,25z M99.7,76.9c-0.9,1.6-1.9,3.2-3,4.7
		l16.4-4.9c0.4-1.4,0.7-2.7,1-4.1L99.7,76.9L99.7,76.9z M78.3,97.4c-4.1,2-8.5,3.5-13.1,4.4c-6,2.6-12.2,6.1-18.2,10.7
		c1.6,0.5,3.3,0.9,5,1.3l0.1,0c0.2,0,0.4,0.1,0.6,0.1c3.2,0.6,6.4,0.9,9.8,0.9c2.7,0,5.3-0.2,7.9-0.6l0.4-0.1c0.2,0,0.4-0.1,0.6-0.1
		c2.1-0.4,4.1-0.8,6.2-1.4c3.2-1,6.3-2.2,9.2-3.7c0.3-0.2,0.6-0.3,0.9-0.5l0,0c6.3-3.4,11.8-8,16.2-13.6C97,94.6,88.1,95,78.3,97.4
		L78.3,97.4z M37.7,99.2c-8-3.1-15-8.3-20.4-14.8c-0.8,0.3-1.6,0.5-2.2,0.7c0.4,0.8,0.8,1.6,1.2,2.3l0.2,0.3l0.2,0.4
		c3,5.3,6.9,10,11.5,14L37.7,99.2L37.7,99.2z M108,35.5L108,35.5c-1.1,1.1-2.3,2.3-3.7,3.5c0.8,3,1.4,6.2,1.7,9.4
		c3.4-0.3,5.9,0.2,7.7,0.9c-0.2-0.7-0.4-1.5-0.6-2.2c-1.2-4-2.8-7.7-4.8-11.2l0,0l-0.1-0.2l0,0L108,35.5z"/>
	<path id="XMLID_25_" fill-rule="evenodd" clip-rule="evenodd" fill="#FFEBBC" d="M23.8,51.7c-0.6,2.1-2.8,3.2-4.8,2.6
		c-2.1-0.6-3.2-2.8-2.6-4.8c1.9-6.5,5.2-12.4,9.5-17.6c4.3-5.2,9.7-9.6,15.7-12.8c1.9-1,4.3-0.3,5.3,1.6c1,1.9,0.3,4.3-1.6,5.3
		c-5.1,2.7-9.7,6.4-13.4,10.8C28.1,41.2,25.4,46.2,23.8,51.7L23.8,51.7z M55.8,22.1c-2.1,0.5-4.2-0.8-4.7-2.9
		C50.6,17,51.9,15,54,14.5c1-0.2,2.1-0.4,3.3-0.6c1.1-0.2,2.2-0.3,3.3-0.4c2.1-0.2,4,1.4,4.2,3.5c0.2,2.1-1.4,4-3.5,4.2
		c-0.9,0.1-1.9,0.2-2.8,0.3C57.6,21.7,56.7,21.9,55.8,22.1z"/>
	<path id="XMLID_28_" fill-rule="evenodd" clip-rule="evenodd" fill="#BC8C50" d="M41.2,48.8c2,0,3.7-1.7,3.7-3.7
		c0-2-1.7-3.7-3.7-3.7c-2,0-3.7,1.7-3.7,3.7C37.5,47.1,39.2,48.8,41.2,48.8z"/>
	<circle id="XMLID_29_" fill-rule="evenodd" clip-rule="evenodd" fill="#BC8C50" cx="48.5" cy="48.2" r="1.5"/>
	<path id="XMLID_30_" fill-rule="evenodd" clip-rule="evenodd" fill="#BC8C50" d="M60.3,33.9c1.3,0,2.3-1,2.3-2.3
		c0-1.3-1-2.3-2.3-2.3c-1.3,0-2.3,1-2.3,2.3C58,32.9,59,33.9,60.3,33.9z"/>
	<path id="XMLID_31_" fill-rule="evenodd" clip-rule="evenodd" fill="#DABD86" d="M81.4,47.9c2.4,0,4.4-2,4.4-4.4
		c0-2.4-2-4.4-4.4-4.4c-2.4,0-4.4,2-4.4,4.4C77,45.9,78.9,47.9,81.4,47.9z"/>
	<path id="XMLID_32_" fill-rule="evenodd" clip-rule="evenodd" fill="#DABD86" d="M64.4,99.5c1.9,0,3.4-1.5,3.4-3.4
		s-1.5-3.4-3.4-3.4c-1.9,0-3.4,1.5-3.4,3.4S62.5,99.5,64.4,99.5z"/>
	<path id="XMLID_33_" fill-rule="evenodd" clip-rule="evenodd" fill="#DABD86" d="M51.3,75.9c2.8,0,5.2-2.3,5.2-5.2
		s-2.3-5.2-5.2-5.2c-2.8,0-5.2,2.3-5.2,5.2S48.5,75.9,51.3,75.9z"/>
	<path id="XMLID_34_" fill-rule="evenodd" clip-rule="evenodd" fill="#DABD86" d="M43.7,77.9c1.1,0,2.1-0.9,2.1-2.1
		c0-1.1-0.9-2.1-2.1-2.1c-1.1,0-2.1,0.9-2.1,2.1C41.6,77,42.6,77.9,43.7,77.9z"/>
	<circle id="XMLID_35_" fill-rule="evenodd" clip-rule="evenodd" fill="#DABD86" cx="58.7" cy="69.8" r="1"/>
</g>
</svg>
