<?xml version="1.0" encoding="utf-8"?>
<!-- Generator: Adobe Illustrator 19.0.0, SVG Export Plug-In . SVG Version: 6.00 Build 0)  -->
<svg version="1.1" id="Layer_1" xmlns="http://www.w3.org/2000/svg" xmlns:xlink="http://www.w3.org/1999/xlink" x="0px" y="0px"
	 viewBox="0 0 125 125" enable-background="new 0 0 125 125" xml:space="preserve">
<g>
	<circle id="XMLID_2_" fill-rule="evenodd" clip-rule="evenodd" fill="#77C7D2" cx="62.9" cy="62.1" r="52.7"/>
	<path id="XMLID_3_" fill-rule="evenodd" clip-rule="evenodd" fill="#55BAC3" d="M106.5,52.5c0,27.7-22.5,50.1-50.1,50.1
		C37.1,102.6,20.5,91.9,12,76c6.1,22.3,26.5,38.8,50.8,38.8c29.1,0,52.7-23.6,52.7-52.7c0-17.2-8.2-32.5-21-42.1
		C102,28.8,106.5,40.1,106.5,52.5z"/>
	<path id="XMLID_4_" fill-rule="evenodd" clip-rule="evenodd" fill="#A6DAE7" d="M24.1,51.7c-0.6,2.1-2.8,3.2-4.8,2.6
		c-2.1-0.6-3.2-2.8-2.6-4.8c1.9-6.5,5.2-12.4,9.5-17.6c4.3-5.2,9.7-9.6,15.7-12.8c1.9-1,4.3-0.3,5.3,1.6c1,1.9,0.3,4.3-1.6,5.3
		c-5.1,2.7-9.7,6.4-13.4,10.8C28.5,41.2,25.8,46.2,24.1,51.7L24.1,51.7z M56.1,22.1c-2.1,0.5-4.2-0.8-4.7-2.9
		C51,17,52.3,15,54.4,14.5c1-0.2,2.1-0.4,3.3-0.6c1.1-0.2,2.2-0.3,3.3-0.4c2.1-0.2,4,1.4,4.2,3.5c0.2,2.1-1.4,4-3.5,4.2
		c-0.9,0.1-1.9,0.2-2.8,0.3C58,21.7,57.1,21.9,56.1,22.1z"/>
	<path id="XMLID_7_" fill-rule="evenodd" clip-rule="evenodd" fill="#34A649" d="M87.8,108.5c2.3-1.9,6.1-4.2,6.1-5.8
		c0-2.2-0.2-5.5,2.4-7.2c2.6-1.7,5.5-2.7,5.5-5c0-2.3-0.2-4.7,1-7c1.3-2.4,2-1.8,2-3.8c0-1.9-0.6-2.6-1.9-2.6
		c-1.3,0-1.8-1.3-1.8-1.3c-1.5-3.4-3.7-1.3-6.3-3.4c-2.6-2.2-4.4-6.7-7.9-6.7c-3.5,0-3.5,0.2-4.7-0.7c-1.2-0.9-1.5-1.7-2.3-2.8
		c-0.8-1-1.3-1.1-3.5-1.1c-2.2,0-2.3-1.9-3.6-1.9c-1.3,0-1.5,0-3.3,0s-2.1,0.5-3.6,2.1c-1.5,1.6-2.8,2.3-4.1,2
		c-1.3-0.3-2.2-1.1-2.2-2.3c0-1.2,0-1,0-2.9c0-1.9-0.4-2.3-1.5-2.8c-1.1-0.6-2-1.4-0.7-2.7c1.2-1.3,2.1-2.7,1.3-2.7
		c-0.7,0-2.1,0-3.7,0c-1.7,0-2.5,0.1-3.2,0.9c-0.8,0.8-1.5,2-2.1,1.9c-0.5-0.1-1-1.1-0.8-1.7c0.2-0.5,1.6-5.5,3.5-7
		c1.9-1.5,3.7-0.8,4.5,0c0.8,0.8,0.9,3.6,3.5,2.8c2.6-0.8,3.5-6.7,5.2-8.3c1.7-1.6,6.7-0.7,9.8-5.1c3.1-4.4,4.8-8,6.8-8
		c2,0,2.2,0,5.4,0c3.2,0,4.3-0.8,4.3-3.8c0-1.6,1-2,1.9-2.3c-1.9-1.4-4-2.7-6.1-3.8c-0.5,0.2-1.1,0.5-1.7,1.2
		c-1.4,1.7-2.9,2.6-4,2.1c-1.1-0.5-1.3-1-2.6-1c-1.3,0-2.3,0.7-2.8,1.7c-0.5,1-1.6,2.5-2.6,2.5c-1,0-1.3-0.4-1.3-0.9
		c0-0.5,0-1.3,0-2.3c0-0.9-0.3-2.1-2.3-2.1s-3.4-0.4-2.4-1.7c0.8-1.1,1.9-4,4.2-4.8c-7.8-1.4-16.1-1-24.3,1.4
		C36.4,15,27,22,20.4,30.9c1.9,3.3,3.5,5.9,4.2,6.4c2.6,1.9,4.5,4.6,7.9,4.6c3.4,0,6.2,0.4,6.2,3.7c0,3.3-1.4,3.3-1.4,5.9
		c0,2.6,1.3,3.2,2.9,3.2c1.6,0,2.6,0,6.4,0c3.8,0,3.2,2.1,6,2.1c2.8,0,2.7,2.3,3.6,4c0.9,1.7,2,4.1,5,4.1c3,0,2.4,2.5,0.8,5.1
		c-1.6,2.6-4,5.2-4,7.9c0,2.7-0.1,4.5,3.4,4.5c3.5,0,0.9,4.5,5.2,4.5c4.2,0,3.9,2.8,3.9,6.2c0,3.3,1.8,2.9,1.8,5.1
		c0,2.2,0,2.9,0,5.8c0,2.9,0.1,4.5,1.9,6.2c0.7,0.7,1.1,1.7,1.5,2.9c0.7-0.2,1.5-0.4,2.2-0.6C81.4,111.6,84.7,110.2,87.8,108.5z"/>
	<path id="XMLID_8_" fill-rule="evenodd" clip-rule="evenodd" fill="#2F9345" d="M87.8,108.5c2.3-1.9,6.1-4.2,6.1-5.8
		c0-2.2-0.2-5.5,2.4-7.2c2.6-1.7,5.5-2.7,5.5-5c0-2.3-0.2-4.7,1-7c1.3-2.4,2-1.8,2-3.8c0-1.9-0.6-2.6-1.9-2.6
		c-1.3,0-1.8-1.3-1.8-1.3c-0.1-0.1-0.1-0.3-0.2-0.4C95,86.9,84.8,95.8,72.3,100v4.1c0,2.9,0.1,4.5,1.9,6.2c0.7,0.7,1.1,1.7,1.5,2.9
		c0.7-0.2,1.5-0.4,2.2-0.6c3-0.9,5.8-2,8.5-3.3l0.1-0.1c0.2-0.1,0.4-0.2,0.6-0.3C87.3,108.8,87.6,108.7,87.8,108.5z"/>
	<path id="XMLID_9_" fill-rule="evenodd" clip-rule="evenodd" fill="#55B247" d="M23.3,35.6c0.9-1.3,1.8-2.5,2.8-3.7
		c4.3-5.2,9.7-9.6,15.7-12.8c1.9-1,4.3-0.3,5.3,1.6c1,1.9,0.3,4.3-1.6,5.3c-5.1,2.7-9.7,6.4-13.4,10.8c-1.1,1.3-2.1,2.6-3,4
		c-1.6-1-2.9-2.4-4.5-3.6C24.3,37.1,23.9,36.5,23.3,35.6L23.3,35.6z M56.1,22.1c-2.1,0.5-4.2-0.8-4.7-2.9C51,17,52.3,15,54.4,14.5
		c1-0.2,2.1-0.4,3.3-0.6c1.1-0.2,2.2-0.3,3.3-0.4c2.1-0.2,4,1.4,4.2,3.5c0.2,2.1-1.4,4-3.5,4.2c-0.9,0.1-1.9,0.2-2.8,0.3
		C58,21.7,57.1,21.9,56.1,22.1z"/>
	<path id="XMLID_12_" fill-rule="evenodd" clip-rule="evenodd" fill="#55BAC3" d="M43.1,104.5c3.4,0,6.2-2.8,6.2-6.2
		c0-3.4-2.8-6.2-6.2-6.2c-3.4,0-6.2,2.8-6.2,6.2C36.9,101.8,39.7,104.5,43.1,104.5z"/>
	<path id="XMLID_13_" fill-rule="evenodd" clip-rule="evenodd" fill="#55BAC3" d="M32.6,93.3c1.9,0,3.4-1.5,3.4-3.4
		c0-1.9-1.5-3.4-3.4-3.4c-1.9,0-3.4,1.5-3.4,3.4C29.2,91.7,30.7,93.3,32.6,93.3z"/>
	<path id="XMLID_14_" fill-rule="evenodd" clip-rule="evenodd" fill="#55BAC3" d="M55.3,101.3c0.9,0,1.6-0.7,1.6-1.6
		c0-0.9-0.7-1.6-1.6-1.6c-0.9,0-1.6,0.7-1.6,1.6C53.7,100.6,54.4,101.3,55.3,101.3z"/>
	<path id="XMLID_15_" fill-rule="evenodd" clip-rule="evenodd" fill="#55BAC3" d="M100.7,70.5c0.9,0,1.6-0.7,1.6-1.6
		c0-0.9-0.7-1.6-1.6-1.6c-0.9,0-1.6,0.7-1.6,1.6C99.1,69.7,99.8,70.5,100.7,70.5z"/>
	<path id="XMLID_16_" fill-rule="evenodd" clip-rule="evenodd" fill="#55BAC3" d="M105.1,51.5c3.8,0,6.9-3.1,6.9-6.9
		c0-3.8-3.1-6.9-6.9-6.9c-3.8,0-6.9,3.1-6.9,6.9C98.2,48.4,101.3,51.5,105.1,51.5z"/>
	<path id="XMLID_17_" fill-rule="evenodd" clip-rule="evenodd" fill="#55BAC3" d="M98.9,60.2c1.9,0,3.4-1.5,3.4-3.4
		c0-1.9-1.5-3.4-3.4-3.4c-1.9,0-3.4,1.5-3.4,3.4C95.4,58.6,97,60.2,98.9,60.2z"/>
</g>
</svg>
