<?xml version="1.0" encoding="utf-8"?>
<!-- Generator: Adobe Illustrator 19.0.0, SVG Export Plug-In . SVG Version: 6.00 Build 0)  -->
<svg version="1.1" id="Layer_1" xmlns="http://www.w3.org/2000/svg" xmlns:xlink="http://www.w3.org/1999/xlink" x="0px" y="0px"
	 viewBox="0 0 125 125" enable-background="new 0 0 125 125" xml:space="preserve">
<g>
	<circle id="XMLID_2_" fill-rule="evenodd" clip-rule="evenodd" fill="#EA614C" cx="63.1" cy="62.5" r="52.7"/>
	<path id="XMLID_3_" fill-rule="evenodd" clip-rule="evenodd" fill="#D14247" d="M106.7,52.8c0,27.7-22.5,50.1-50.1,50.1
		c-19.2,0-35.8-10.8-44.3-26.6c6.1,22.3,26.5,38.8,50.8,38.8c29.1,0,52.7-23.6,52.7-52.7c0-17.2-8.2-32.5-21-42.1
		C102.2,29.2,106.7,40.5,106.7,52.8z"/>
	<path id="XMLID_4_" fill-rule="evenodd" clip-rule="evenodd" fill="#F2A06E" d="M24.4,52.1c-0.6,2.1-2.8,3.2-4.8,2.6
		c-2.1-0.6-3.2-2.8-2.6-4.8c1.9-6.5,5.2-12.4,9.5-17.6c4.3-5.2,9.7-9.6,15.7-12.8c1.9-1,4.3-0.3,5.3,1.6c1,1.9,0.3,4.3-1.6,5.3
		c-5.1,2.7-9.7,6.4-13.4,10.8C28.7,41.6,26,46.6,24.4,52.1L24.4,52.1z M56.4,22.5c-2.1,0.5-4.2-0.8-4.7-2.9
		c-0.5-2.1,0.8-4.2,2.9-4.7c1-0.2,2.1-0.4,3.3-0.6c1.1-0.2,2.2-0.3,3.3-0.4c2.1-0.2,4,1.4,4.2,3.5c0.2,2.1-1.4,4-3.5,4.2
		c-0.9,0.1-1.9,0.2-2.8,0.3C58.2,22.1,57.3,22.3,56.4,22.5z"/>
	<path id="XMLID_7_" fill-rule="evenodd" clip-rule="evenodd" fill="#D14247" d="M55.2,110.1c4.4,0,8-3.6,8-8c0-4.4-3.6-8-8-8
		c-4.4,0-8,3.6-8,8C47.2,106.5,50.8,110.1,55.2,110.1z"/>
	<path id="XMLID_8_" fill-rule="evenodd" clip-rule="evenodd" fill="#D14247" d="M67.6,98.9c2.6,0,4.7-2.1,4.7-4.7
		c0-2.6-2.1-4.7-4.7-4.7c-2.6,0-4.7,2.1-4.7,4.7C62.8,96.8,65,98.9,67.6,98.9z"/>
	<path id="XMLID_9_" fill-rule="evenodd" clip-rule="evenodd" fill="#D14247" d="M44.2,98.8c0.9,0,1.7-0.8,1.7-1.7
		c0-0.9-0.8-1.7-1.7-1.7c-0.9,0-1.7,0.8-1.7,1.7C42.6,98.1,43.3,98.8,44.2,98.8z"/>
	<path id="XMLID_10_" fill-rule="evenodd" clip-rule="evenodd" fill="#D14247" d="M103.9,66c5.1,0,9.3-4.2,9.3-9.3
		c0-5.1-4.2-9.3-9.3-9.3c-5.1,0-9.3,4.2-9.3,9.3C94.6,61.8,98.8,66,103.9,66z"/>
	<path id="XMLID_11_" fill-rule="evenodd" clip-rule="evenodd" fill="#EA614C" d="M103.9,62.3c3,0,5.5-2.5,5.5-5.5
		c0-3-2.5-5.5-5.5-5.5c-3,0-5.5,2.5-5.5,5.5C98.3,59.8,100.8,62.3,103.9,62.3z"/>
	<path id="XMLID_12_" fill-rule="evenodd" clip-rule="evenodd" fill="#D14247" d="M96,75.6c2.3,0,4.1-1.9,4.1-4.1
		c0-2.3-1.9-4.1-4.1-4.1s-4.1,1.9-4.1,4.1C91.9,73.8,93.7,75.6,96,75.6z"/>
	<path id="XMLID_13_" fill-rule="evenodd" clip-rule="evenodd" fill="#D14247" d="M105.1,45.5c1.5,0,2.7-1.2,2.7-2.7
		c0-1.5-1.2-2.7-2.7-2.7c-1.5,0-2.7,1.2-2.7,2.7C102.4,44.3,103.6,45.5,105.1,45.5z"/>
	<path id="XMLID_14_" fill-rule="evenodd" clip-rule="evenodd" fill="#EA614C" d="M89.8,100.2c5,0,9-4,9-9s-4-9-9-9c-5,0-9,4-9,9
		S84.8,100.2,89.8,100.2z"/>
	<path id="XMLID_15_" fill-rule="evenodd" clip-rule="evenodd" fill="#EA614C" d="M81.3,104.2c1.4,0,2.6-1.2,2.6-2.6
		c0-1.4-1.2-2.6-2.6-2.6c-1.4,0-2.6,1.2-2.6,2.6C78.7,103.1,79.9,104.2,81.3,104.2z"/>
	<circle id="XMLID_16_" fill-rule="evenodd" clip-rule="evenodd" fill="#EA614C" cx="100.5" cy="84.9" r="1.3"/>
	<path id="XMLID_17_" fill-rule="evenodd" clip-rule="evenodd" fill="#D14247" d="M93.7,82c0.9,0,1.7-0.8,1.7-1.7
		c0-0.9-0.8-1.7-1.7-1.7c-0.9,0-1.7,0.8-1.7,1.7C92,81.3,92.8,82,93.7,82z"/>
	<path id="XMLID_18_" fill-rule="evenodd" clip-rule="evenodd" fill="#F2A06E" d="M22,68.1c0.9,0,1.7-0.8,1.7-1.7
		c0-0.9-0.8-1.7-1.7-1.7c-0.9,0-1.7,0.8-1.7,1.7C20.4,67.4,21.1,68.1,22,68.1z"/>
	<path id="XMLID_19_" fill-rule="evenodd" clip-rule="evenodd" fill="#F2A06E" d="M34.9,87.9c5.5,0,10.1-4.5,10.1-10.1
		c0-5.5-4.5-10.1-10.1-10.1c-5.5,0-10.1,4.5-10.1,10.1C24.8,83.4,29.3,87.9,34.9,87.9z"/>
	<path id="XMLID_20_" fill-rule="evenodd" clip-rule="evenodd" fill="#EA614C" d="M34.9,84.9c3.9,0,7.1-3.2,7.1-7.1
		c0-3.9-3.2-7.1-7.1-7.1c-3.9,0-7.1,3.2-7.1,7.1C27.8,81.8,31,84.9,34.9,84.9z"/>
	<path id="XMLID_21_" fill-rule="evenodd" clip-rule="evenodd" fill="#F2A06E" d="M86.3,44.5c2.1,0,3.8-1.7,3.8-3.8
		c0-2.1-1.7-3.8-3.8-3.8c-2.1,0-3.8,1.7-3.8,3.8C82.6,42.8,84.3,44.5,86.3,44.5z"/>
	<path id="XMLID_22_" fill-rule="evenodd" clip-rule="evenodd" fill="#F2A06E" d="M54.5,53.4c2.1,0,3.8-1.7,3.8-3.8
		c0-2.1-1.7-3.8-3.8-3.8s-3.8,1.7-3.8,3.8C50.7,51.7,52.4,53.4,54.5,53.4z"/>
	<path id="XMLID_23_" fill-rule="evenodd" clip-rule="evenodd" fill="#F2A06E" d="M54.9,29.4c1,0,1.9-0.8,1.9-1.9
		c0-1-0.8-1.9-1.9-1.9c-1,0-1.9,0.8-1.9,1.9C53,28.5,53.9,29.4,54.9,29.4z"/>
	<path id="XMLID_24_" fill-rule="evenodd" clip-rule="evenodd" fill="#F2A06E" d="M69.3,67.6c2.8,0,5.1-2.3,5.1-5.1
		c0-2.8-2.3-5.1-5.1-5.1c-2.8,0-5.1,2.3-5.1,5.1C64.2,65.3,66.5,67.6,69.3,67.6z"/>
	<path id="XMLID_25_" fill-rule="evenodd" clip-rule="evenodd" fill="#F2A06E" d="M92.2,18.6c-1.7,3.2-5,5.3-8.9,5.3
		c-5.6,0-10.1-4.5-10.1-10.1c0-1,0.2-2,0.4-3C80.3,12.2,86.6,14.9,92.2,18.6z"/>
	<path id="XMLID_26_" fill-rule="evenodd" clip-rule="evenodd" fill="#EA614C" d="M89.7,17c-1.2,2.3-3.6,3.9-6.3,3.9
		c-3.9,0-7.1-3.2-7.1-7.1c0-0.8,0.1-1.6,0.4-2.3C81.2,12.8,85.6,14.6,89.7,17z"/>
</g>
</svg>
