<?xml version="1.0" encoding="utf-8"?>
<!-- Generator: Adobe Illustrator 19.0.0, SVG Export Plug-In . SVG Version: 6.00 Build 0)  -->
<svg version="1.1" id="Layer_1" xmlns="http://www.w3.org/2000/svg" xmlns:xlink="http://www.w3.org/1999/xlink" x="0px" y="0px"
	 viewBox="0 0 125 125" enable-background="new 0 0 125 125" xml:space="preserve">
<g>
	<circle id="XMLID_2_" fill-rule="evenodd" clip-rule="evenodd" fill="#698BC3" cx="62.5" cy="62.9" r="52.7"/>
	<path id="XMLID_3_" fill-rule="evenodd" clip-rule="evenodd" fill="#406596" d="M106.1,53.2c0,27.7-22.5,50.2-50.2,50.2
		c-19.2,0-35.8-10.8-44.3-26.6c6.1,22.3,26.5,38.8,50.8,38.8c29.1,0,52.7-23.6,52.7-52.7c0-17.2-8.2-32.5-21-42.1
		C101.6,29.5,106.1,40.9,106.1,53.2z"/>
	<path id="XMLID_4_" fill-rule="evenodd" clip-rule="evenodd" fill="#9FB4D7" d="M23.8,52.4c-0.6,2.1-2.8,3.2-4.8,2.6
		c-2.1-0.6-3.2-2.8-2.6-4.8c1.9-6.5,5.2-12.4,9.5-17.6c4.3-5.2,9.7-9.6,15.7-12.8c1.9-1,4.3-0.3,5.3,1.6c1,1.9,0.3,4.3-1.6,5.3
		c-5.1,2.7-9.7,6.4-13.4,10.8C28.1,42,25.4,47,23.8,52.4L23.8,52.4z M55.8,22.8c-2.1,0.5-4.2-0.8-4.7-2.9c-0.5-2.1,0.8-4.2,2.9-4.7
		c1-0.2,2.1-0.4,3.3-0.6c1.1-0.2,2.2-0.3,3.3-0.4c2.1-0.2,4,1.4,4.2,3.5c0.2,2.1-1.4,4-3.5,4.2c-0.9,0.1-1.9,0.2-2.8,0.3
		C57.6,22.5,56.7,22.6,55.8,22.8z"/>
	<path id="XMLID_7_" fill-rule="evenodd" clip-rule="evenodd" fill="#406596" d="M103.2,65.8c4.8,0,8.7-3.9,8.7-8.7
		c0-4.8-3.9-8.7-8.7-8.7c-4.8,0-8.7,3.9-8.7,8.7C94.5,61.9,98.4,65.8,103.2,65.8z"/>
	<path id="XMLID_8_" fill-rule="evenodd" clip-rule="evenodd" fill="#406596" d="M95.4,76c2.3,0,4.1-1.9,4.1-4.1
		c0-2.3-1.9-4.1-4.1-4.1c-2.3,0-4.1,1.9-4.1,4.1C91.3,74.1,93.1,76,95.4,76z"/>
	<path id="XMLID_9_" fill-rule="evenodd" clip-rule="evenodd" fill="#406596" d="M104.5,45.9c1.5,0,2.7-1.2,2.7-2.7
		c0-1.5-1.2-2.7-2.7-2.7c-1.5,0-2.7,1.2-2.7,2.7C101.8,44.7,103,45.9,104.5,45.9z"/>
	<circle id="XMLID_10_" fill-rule="evenodd" clip-rule="evenodd" fill="#698BC3" cx="62.3" cy="102.9" r="9"/>
	<circle id="XMLID_11_" fill-rule="evenodd" clip-rule="evenodd" fill="#698BC3" cx="49.7" cy="107.5" r="2.6"/>
	<circle id="XMLID_12_" fill-rule="evenodd" clip-rule="evenodd" fill="#698BC3" cx="74.8" cy="103.2" r="1.3"/>
	<path id="XMLID_13_" fill-rule="evenodd" clip-rule="evenodd" fill="#406596" d="M93.1,82.4c0.9,0,1.7-0.8,1.7-1.7
		c0-0.9-0.8-1.7-1.7-1.7c-0.9,0-1.7,0.8-1.7,1.7C91.4,81.7,92.1,82.4,93.1,82.4z"/>
	<path id="XMLID_14_" fill-rule="evenodd" clip-rule="evenodd" fill="#406596" d="M36.5,90.7c5.5,0,10.1-4.5,10.1-10.1
		c0-5.5-4.5-10.1-10.1-10.1c-5.5,0-10.1,4.5-10.1,10.1C26.4,86.2,31,90.7,36.5,90.7z"/>
	<path id="XMLID_15_" fill-rule="evenodd" clip-rule="evenodd" fill="#698BC3" d="M36.5,87.1c3.5,0,6.4-2.9,6.4-6.4
		s-2.9-6.4-6.4-6.4s-6.4,2.9-6.4,6.4S33,87.1,36.5,87.1z"/>
	<path id="XMLID_16_" fill-rule="evenodd" clip-rule="evenodd" fill="#406596" d="M91.6,18.9c-1.7,3.2-5,5.3-8.9,5.3
		c-5.6,0-10.1-4.5-10.1-10.1c0-1,0.2-2,0.4-3C79.7,12.6,86,15.2,91.6,18.9z"/>
	<path id="XMLID_17_" fill-rule="evenodd" clip-rule="evenodd" fill="#698BC3" d="M89,17.4c-1.2,2.3-3.6,3.9-6.3,3.9
		c-3.9,0-7.1-3.2-7.1-7.1c0-0.8,0.1-1.6,0.4-2.3C80.6,13.2,85,15,89,17.4z"/>
	<circle id="XMLID_18_" fill-rule="evenodd" clip-rule="evenodd" fill="#406596" cx="62.3" cy="102.9" r="6.4"/>
	<path id="XMLID_19_" fill-rule="evenodd" clip-rule="evenodd" fill="#698BC3" d="M80.1,101.6c2.7,0,4.9-2.2,4.9-4.9
		c0-2.7-2.2-4.9-4.9-4.9c-2.7,0-4.9,2.2-4.9,4.9C75.3,99.4,77.5,101.6,80.1,101.6z"/>
	<path id="XMLID_20_" fill-rule="evenodd" clip-rule="evenodd" fill="#406596" d="M80.1,99.5c1.6,0,2.8-1.3,2.8-2.8
		c0-1.6-1.3-2.8-2.8-2.8c-1.6,0-2.8,1.3-2.8,2.8C77.3,98.3,78.6,99.5,80.1,99.5z"/>
	<path id="XMLID_21_" fill-rule="evenodd" clip-rule="evenodd" fill="#9FB4D7" d="M34.4,49.5c5.6,0,10.2-4.6,10.2-10.2
		S40,29.1,34.4,29.1c-5.6,0-10.2,4.6-10.2,10.2S28.8,49.5,34.4,49.5z"/>
	<path id="XMLID_22_" fill-rule="evenodd" clip-rule="evenodd" fill="#698BC3" d="M34.4,44.8c3,0,5.5-2.5,5.5-5.5
		c0-3-2.5-5.5-5.5-5.5s-5.5,2.5-5.5,5.5C28.9,42.3,31.4,44.8,34.4,44.8z"/>
	<path id="XMLID_23_" fill-rule="evenodd" clip-rule="evenodd" fill="#406596" d="M52.9,79.8c1.6,0,2.8-1.3,2.8-2.8
		c0-1.6-1.3-2.8-2.8-2.8c-1.6,0-2.8,1.3-2.8,2.8C50,78.5,51.3,79.8,52.9,79.8z"/>
	<path id="XMLID_24_" fill-rule="evenodd" clip-rule="evenodd" fill="#406596" d="M22.3,83.5c1.2,0,2.2-1,2.2-2.2
		c0-1.2-1-2.2-2.2-2.2s-2.2,1-2.2,2.2C20.2,82.5,21.2,83.5,22.3,83.5z"/>
	<path id="XMLID_25_" fill-rule="evenodd" clip-rule="evenodd" fill="#406596" d="M89.6,31.4c1.2,0,2.2-1,2.2-2.2s-1-2.2-2.2-2.2
		s-2.2,1-2.2,2.2S88.4,31.4,89.6,31.4z"/>
	<path id="XMLID_26_" fill-rule="evenodd" clip-rule="evenodd" fill="#406596" d="M85.9,62.6c2.2,0,4-1.8,4-4c0-2.2-1.8-4-4-4
		c-2.2,0-4,1.8-4,4C81.9,60.9,83.7,62.6,85.9,62.6z"/>
	<path id="XMLID_27_" fill-rule="evenodd" clip-rule="evenodd" fill="#9FB4D7" d="M49.9,38.3c2.2,0,4-1.8,4-4c0-2.2-1.8-4-4-4
		c-2.2,0-4,1.8-4,4C45.9,36.6,47.7,38.3,49.9,38.3z"/>
</g>
</svg>
