<?xml version="1.0" encoding="utf-8"?>
<!-- Generator: Adobe Illustrator 19.0.0, SVG Export Plug-In . SVG Version: 6.00 Build 0)  -->
<svg version="1.1" id="Layer_1" xmlns="http://www.w3.org/2000/svg" xmlns:xlink="http://www.w3.org/1999/xlink" x="0px" y="0px"
	 viewBox="0 0 135 125" enable-background="new 0 0 135 125" xml:space="preserve">
<g>
	<circle id="XMLID_2_" fill-rule="evenodd" clip-rule="evenodd" fill="#FFEBBC" cx="67.9" cy="62.5" r="47.5"/>
	<path id="XMLID_3_" fill-rule="evenodd" clip-rule="evenodd" fill="#F4D6A2" d="M107.2,53.8c0,25-20.2,45.2-45.2,45.2
		c-17.3,0-32.3-9.7-39.9-24C27.6,95.2,46,110,67.9,110c26.2,0,47.5-21.3,47.5-47.5c0-15.5-7.4-29.3-18.9-37.9
		C103.1,32.5,107.2,42.7,107.2,53.8z"/>
	<path id="XMLID_4_" fill-rule="evenodd" clip-rule="evenodd" fill="#F5B879" d="M51.3,107c4.2-4.2,13.2-12.1,25.2-15.4
		c11.6-3.2,20.6,1.3,25.1,4.4c-3.2,3.2-6.8,6-11,8.2C78,111,63.7,111.6,51.3,107L51.3,107z M34.7,28.5c12.1,0.8,29.5-0.8,46.6-11.6
		c-11.6-3.4-24.6-2.4-36.1,3.8C41.3,22.9,37.7,25.5,34.7,28.5L34.7,28.5z M28.8,35.5c4,0.6,9.3,0.6,15.7-0.7
		C62,31,73,28.7,82.6,26.6c3.7-0.8,6.7-2.9,9.1-5.2c6.7,3.9,12.4,9.4,16.7,16.4l-2.8-1.7L24.1,44C25.4,41,27,38.2,28.8,35.5
		L28.8,35.5z M20.4,62c4.6,1.2,11.2,1.7,20.7-0.3c22.5-4.8,26.5-5.6,39.4-8.4c11.8-2.5,26.9-5.6,33.4-2.6c1.2,4.9,1.7,9.9,1.4,14.7
		l-1.1,0.7c0,0,1.5-8-24.9-2.4c-26.4,5.6-3.2,0.7-19.2,4.1c-15,3.2-37.1,13.5-42.7,19.4c-0.4-0.7-0.9-1.4-1.3-2.2
		C22.2,77.8,20.3,69.9,20.4,62L20.4,62z M34.5,96.3l19-4c9-1.9,7.5-4.2,21.2-7.1c13.7-2.9,25.7,0.4,31.9,4c0.1,0.1,0.3,0.2,0.4,0.2
		c1.6-2.3,3-4.8,4.1-7.3c-5.6-2.6-19.9-7.7-38.1-3.2c-23.5,5.8-13.8,6.3-29.4,9.6l-13.5,2.9C31.5,93.1,32.9,94.7,34.5,96.3z"/>
	<path id="XMLID_10_" fill-rule="evenodd" clip-rule="evenodd" fill="#DFA363" d="M51.3,107c2.1-2.1,5.3-5.1,9.5-8
		c0.4,0,0.8,0,1.2,0c9.7,0,18.7-3.1,26.1-8.3c6,0.8,10.6,3.3,13.5,5.3c-1.9,1.9-4,3.7-6.1,5.2l-0.1,0.1c-0.2,0.2-0.5,0.3-0.7,0.5
		l-0.5,0.3l-0.2,0.1c-1.1,0.7-2.2,1.4-3.4,2c-2.9,1.6-6,2.8-9,3.8l-0.2,0.1c-0.3,0.1-0.5,0.2-0.8,0.2c-0.2,0.1-0.4,0.1-0.7,0.2
		l-0.2,0.1c-3.8,1-7.7,1.5-11.8,1.5c-1.7,0-3.3-0.1-4.9-0.3l-0.2,0c-0.2,0-0.4,0-0.7-0.1C58.4,109.2,54.7,108.3,51.3,107L51.3,107z
		 M107.2,53.8c0,2.8-0.3,5.5-0.7,8.1c8.5,0.5,7.7,4.4,7.7,4.4l1.1-0.7c0.1-1,0.1-2,0.1-3c0-3.6-0.4-7.1-1.2-10.5l0,0l0,0l0-0.1
		l-0.1-0.3c-0.1-0.2-0.1-0.5-0.2-0.7c-1.8-0.8-4.1-1.2-6.9-1.2C107.1,50.9,107.2,52.4,107.2,53.8L107.2,53.8z M99.9,78.4
		c-1.5,2.4-3.3,4.6-5.2,6.6c4.9,1,9,2.6,11.9,4.2c0.1,0.1,0.3,0.2,0.4,0.2c0.5-0.7,1-1.5,1.4-2.2l0.1-0.1c0.1-0.2,0.3-0.5,0.4-0.7
		c0.8-1.4,1.6-2.9,2.2-4.3C108.8,81,105,79.4,99.9,78.4L99.9,78.4z M42.4,94.6c-2.5-1.2-5-2.7-7.2-4.3l-5.1,1.1
		c1.3,1.7,2.8,3.4,4.3,4.9L42.4,94.6L42.4,94.6z M29.7,85.4c-3-3.1-5.6-6.6-7.6-10.4c0.9,3.5,2.3,6.9,4.1,10.1
		c0.4,0.7,0.8,1.5,1.3,2.2C28,86.8,28.8,86.1,29.7,85.4L29.7,85.4z M106.6,35c-2.8-4-6.3-7.5-10.2-10.5c3,3.5,5.4,7.5,7.2,11.8
		l2-0.2l2.8,1.7C107.9,36.9,107.3,35.9,106.6,35z"/>
	<path id="XMLID_17_" fill-rule="evenodd" clip-rule="evenodd" fill="#E2A260" d="M20.9,69.3c2.4,0.5,5.7,0.6,10-0.3
		c13.7-2.9,25.7-5.5,37.7-8c12-2.5,24-5.1,28.9-6.1c4.3-0.9,13.5-1.2,17.6,2.2c0.1,1,0.2,2.1,0.3,3.1c-2.4-1.6-8.4-4-21.3-1.3
		c-18,3.8-39.5,8.4-49.2,10.4c-6.6,1.4-15.8,6-21.2,10.5C22.3,76.3,21.4,72.8,20.9,69.3z"/>
	<path id="XMLID_18_" fill-rule="evenodd" clip-rule="evenodd" fill="#C28949" d="M107.2,54.4c3.1,0.3,6,1.1,7.9,2.6
		c0.1,1,0.2,2.1,0.3,3.1c-1.4-0.9-3.9-2.1-8.3-2.4C107.1,56.6,107.1,55.5,107.2,54.4L107.2,54.4z M24.5,79.1
		c-0.3,0.2-0.6,0.5-0.9,0.7c-0.6-1.6-1.1-3.1-1.6-4.7C22.8,76.4,23.6,77.8,24.5,79.1z"/>
	<path id="XMLID_21_" fill-rule="evenodd" clip-rule="evenodd" fill="#E2A260" d="M23.2,46.5l14.9-3.2c8.2-1.7,14.3,2.4,18.5,2.8
		c4.2,0.3,6.1-3.6,14.8-2.9c8.7,0.6,15,4.7,22.2,3.4c7.2-1.3,17.3-3.7,17.3-3.7l0.1-0.4c-0.4-0.9-0.8-1.8-1.3-2.6
		c-2.7-5-6.2-9.3-10.3-12.9L67,33.8l-42.3,9C24.1,44,23.6,45.2,23.2,46.5z"/>
	<path id="XMLID_22_" fill-rule="evenodd" clip-rule="evenodd" fill="#C68C4B" d="M106.1,43.9c2.8-0.6,4.8-1.1,4.8-1.1l0.1-0.4
		c-0.4-0.9-0.8-1.8-1.3-2.6c-0.8-1.5-1.7-2.9-2.6-4.2l-0.3-0.4l0,0c-2.1-3-4.6-5.8-7.4-8.3l-0.9,0.2C102.1,32,104.7,37.7,106.1,43.9
		z"/>
	<path id="XMLID_23_" fill-rule="evenodd" clip-rule="evenodd" fill="#FEF5DD" d="M33,53.1c-0.5,1.9-2.5,2.9-4.4,2.4
		c-1.9-0.5-2.9-2.5-2.4-4.4c1.7-5.8,4.7-11.2,8.5-15.8c3.9-4.7,8.7-8.6,14.2-11.5c1.7-0.9,3.8-0.2,4.7,1.5c0.9,1.7,0.2,3.8-1.5,4.7
		c-4.6,2.5-8.7,5.8-12,9.8C36.9,43.6,34.4,48.2,33,53.1L33,53.1z M61.8,26.4c-1.9,0.4-3.8-0.8-4.2-2.7c-0.4-1.9,0.8-3.8,2.7-4.2
		c0.9-0.2,1.9-0.4,2.9-0.6c1-0.2,2-0.3,2.9-0.4c1.9-0.2,3.6,1.2,3.8,3.2c0.2,1.9-1.2,3.6-3.2,3.8c-0.8,0.1-1.7,0.2-2.5,0.3
		C63.5,26.1,62.6,26.2,61.8,26.4z"/>
	<path id="XMLID_26_" fill-rule="evenodd" clip-rule="evenodd" fill="#E3793B" d="M104.3,32c0.3,0,0.7,0,1,0
		c13.9-0.4,23.8,3,26.5,10.2c2.7,7.2-2.5,16.3-13.2,25.2c-9.9,8.2-24.5,16.5-41.7,22.9l0,0c-17.1,6.5-33.6,9.9-46.4,10.3
		c-13.9,0.4-23.8-3-26.5-10.2C1.3,83.1,6.5,74,17.2,65.1c1-0.9,2.1-1.7,3.2-2.6c0,2.5,0.2,5.1,0.6,7.6c-8.4,7-12.7,13.5-11.1,17.9
		c1.7,4.4,9.3,6.4,20.4,6.1c12.1-0.3,27.9-3.7,44.4-9.9c16.5-6.2,30.5-14.1,39.8-21.9c8.5-7.1,12.9-13.6,11.3-18
		c-1.5-3.9-7.8-6-17.1-6.1C107.4,36,105.9,33.9,104.3,32z"/>
	<path id="XMLID_27_" fill-rule="evenodd" clip-rule="evenodd" fill="#E2A260" d="M74.2,50.7c3.6,0,6.5-2.9,6.5-6.5
		c0-3.6-2.9-6.5-6.5-6.5c-3.6,0-6.5,2.9-6.5,6.5C67.7,47.8,70.6,50.7,74.2,50.7z"/>
	<path id="XMLID_28_" fill-rule="evenodd" clip-rule="evenodd" fill="#FFEBBC" d="M74.2,48.1c2.1,0,3.8-1.7,3.8-3.8
		c0-2.1-1.7-3.8-3.8-3.8c-2.1,0-3.8,1.7-3.8,3.8C70.4,46.4,72.1,48.1,74.2,48.1z"/>
	<path id="XMLID_29_" fill-rule="evenodd" clip-rule="evenodd" fill="#E2A260" d="M64.2,53c1.8,0,3.2-1.4,3.2-3.2
		c0-1.8-1.4-3.2-3.2-3.2c-1.8,0-3.2,1.4-3.2,3.2C61,51.5,62.4,53,64.2,53z"/>
	<circle id="XMLID_30_" fill-rule="evenodd" clip-rule="evenodd" fill="#E2A260" cx="82.8" cy="48.5" r="1.4"/>
	<path id="XMLID_31_" fill-rule="evenodd" clip-rule="evenodd" fill="#F5B879" d="M90.2,34.4c2.4,0,4.4-2,4.4-4.4s-2-4.4-4.4-4.4
		c-2.4,0-4.4,2-4.4,4.4S87.8,34.4,90.2,34.4z"/>
	<path id="XMLID_32_" fill-rule="evenodd" clip-rule="evenodd" fill="#E2A260" d="M90.2,32.4c1.4,0,2.5-1.1,2.5-2.5
		c0-1.4-1.1-2.5-2.5-2.5c-1.4,0-2.5,1.1-2.5,2.5C87.7,31.3,88.8,32.4,90.2,32.4z"/>
	<path id="XMLID_33_" fill-rule="evenodd" clip-rule="evenodd" fill="#E2A260" d="M96.9,69.7c0.8,0,1.4-0.6,1.4-1.4
		c0-0.8-0.6-1.4-1.4-1.4c-0.8,0-1.4,0.6-1.4,1.4C95.4,69.1,96.1,69.7,96.9,69.7z"/>
	<path id="XMLID_34_" fill-rule="evenodd" clip-rule="evenodd" fill="#F5B879" d="M87,70.4c2.6,0,4.7-2.1,4.7-4.7
		c0-2.6-2.1-4.7-4.7-4.7c-2.6,0-4.7,2.1-4.7,4.7C82.3,68.3,84.4,70.4,87,70.4z"/>
	<path id="XMLID_35_" fill-rule="evenodd" clip-rule="evenodd" fill="#FFEBBC" d="M87,68.4c1.5,0,2.7-1.2,2.7-2.7
		c0-1.5-1.2-2.7-2.7-2.7s-2.7,1.2-2.7,2.7C84.3,67.2,85.5,68.4,87,68.4z"/>
	<path id="XMLID_36_" fill-rule="evenodd" clip-rule="evenodd" fill="#F5B879" d="M79.8,73c1.1,0,2-0.9,2-2s-0.9-2-2-2
		c-1.1,0-2,0.9-2,2S78.7,73,79.8,73z"/>
	<path id="XMLID_37_" fill-rule="evenodd" clip-rule="evenodd" fill="#F5B879" d="M75.4,70c0.5,0,0.9-0.4,0.9-0.9
		c0-0.5-0.4-0.9-0.9-0.9c-0.5,0-0.9,0.4-0.9,0.9C74.5,69.6,74.9,70,75.4,70z"/>
	<circle id="XMLID_38_" fill-rule="evenodd" clip-rule="evenodd" fill="#F5B879" cx="93.7" cy="65" r="0.9"/>
	<path id="XMLID_39_" fill-rule="evenodd" clip-rule="evenodd" fill="#FEF5DD" d="M35.7,53c1.9,0,3.5-1.6,3.5-3.5s-1.6-3.5-3.5-3.5
		c-1.9,0-3.5,1.6-3.5,3.5S33.8,53,35.7,53z"/>
	<circle id="XMLID_40_" fill-rule="evenodd" clip-rule="evenodd" fill="#FEF5DD" cx="43" cy="47.5" r="1.7"/>
	<path id="XMLID_41_" fill-rule="evenodd" clip-rule="evenodd" fill="#F5B879" d="M40.4,65.4c2.7,0,5-2.2,5-5c0-2.7-2.2-5-5-5
		c-2.7,0-5,2.2-5,5C35.5,63.2,37.7,65.4,40.4,65.4z"/>
	<path id="XMLID_42_" fill-rule="evenodd" clip-rule="evenodd" fill="#F5B879" d="M32.3,61.9c1.1,0,1.9-0.9,1.9-1.9
		c0-1.1-0.9-1.9-1.9-1.9c-1.1,0-1.9,0.9-1.9,1.9C30.4,61.1,31.3,61.9,32.3,61.9z"/>
	<circle id="XMLID_43_" fill-rule="evenodd" clip-rule="evenodd" fill="#F5B879" cx="48.6" cy="57.9" r="1.2"/>
	<path id="XMLID_44_" fill-rule="evenodd" clip-rule="evenodd" fill="#FFEBBC" d="M40.4,63.4c1.7,0,3-1.4,3-3c0-1.7-1.4-3-3-3
		c-1.7,0-3,1.4-3,3C37.4,62.1,38.8,63.4,40.4,63.4z"/>
	<path id="XMLID_45_" fill-rule="evenodd" clip-rule="evenodd" fill="#F5B879" d="M57.3,87.3c2.7,0,5-2.2,5-5s-2.2-5-5-5
		c-2.7,0-5,2.2-5,5S54.5,87.3,57.3,87.3z"/>
	<path id="XMLID_46_" fill-rule="evenodd" clip-rule="evenodd" fill="#F5B879" d="M46.4,85.7c1.4,0,2.5-1.1,2.5-2.5
		c0-1.4-1.1-2.5-2.5-2.5c-1.4,0-2.5,1.1-2.5,2.5C43.9,84.6,45,85.7,46.4,85.7z"/>
	<path id="XMLID_47_" fill-rule="evenodd" clip-rule="evenodd" fill="#F5B879" d="M64,80.1c0.7,0,1.2-0.5,1.2-1.2
		c0-0.7-0.5-1.2-1.2-1.2c-0.7,0-1.2,0.5-1.2,1.2C62.8,79.6,63.4,80.1,64,80.1z"/>
</g>
</svg>
