<?xml version="1.0" encoding="utf-8"?>
<!-- Generator: Adobe Illustrator 19.0.0, SVG Export Plug-In . SVG Version: 6.00 Build 0)  -->
<svg version="1.1" id="Layer_1" xmlns="http://www.w3.org/2000/svg" xmlns:xlink="http://www.w3.org/1999/xlink" x="0px" y="0px"
	 viewBox="0 0 125 125" enable-background="new 0 0 125 125" xml:space="preserve">
<g>
	<circle id="XMLID_2_" fill-rule="evenodd" clip-rule="evenodd" fill="#ECCD94" cx="63.5" cy="62.5" r="52.7"/>
	<path id="XMLID_3_" fill-rule="evenodd" clip-rule="evenodd" fill="#ECCD94" d="M24.4,51.6c-0.6,2.1-2.8,3.3-4.8,2.6
		c-2.1-0.6-3.3-2.8-2.6-4.8c1.9-6.5,5.2-12.4,9.5-17.6c4.3-5.2,9.7-9.6,15.7-12.8c1.9-1,4.3-0.3,5.3,1.6c1,1.9,0.3,4.3-1.6,5.3
		c-5.1,2.7-9.7,6.4-13.4,10.8C28.8,41.2,26,46.2,24.4,51.6L24.4,51.6z M56.4,22c-2.1,0.5-4.2-0.8-4.7-2.9c-0.5-2.1,0.8-4.2,2.9-4.7
		c1-0.2,2.1-0.4,3.3-0.6c1.1-0.2,2.2-0.3,3.3-0.4c2.1-0.2,4,1.4,4.2,3.5c0.2,2.1-1.4,4-3.5,4.2c-0.9,0.1-1.9,0.2-2.8,0.3
		C58.2,21.7,57.3,21.8,56.4,22z"/>
	<path id="XMLID_6_" fill-rule="evenodd" clip-rule="evenodd" fill="#C09D6D" d="M107.1,52.8c0,27.7-22.5,50.1-50.1,50.1
		c-19.2,0-35.8-10.8-44.3-26.6c6.1,22.3,26.5,38.8,50.8,38.8c29.1,0,52.7-23.6,52.7-52.7c0-17.2-8.2-32.5-21-42.1
		C102.6,29.2,107.1,40.5,107.1,52.8z"/>
	<path id="XMLID_7_" fill-rule="evenodd" clip-rule="evenodd" fill="#FFEBBC" d="M12.3,49.9c6-1.7,14.1-4.2,20.1-6.3
		C43.1,40,48.6,33,55.7,30.7c5.1-1.6,26.7-7.8,38.5-11.1c5.8,4.2,10.8,9.5,14.6,15.8C98.2,42,73.3,55.7,67,57.7
		c-7.9,2.6-37.6,10.3-39.5,10c-1-0.2-9.8,0.5-16.5-1.6C10.6,60.5,11.1,55.1,12.3,49.9z"/>
	<path id="XMLID_8_" fill-rule="evenodd" clip-rule="evenodd" fill="#F8E2AE" d="M16.3,85.9C31.7,81.3,55.5,74.2,61,73.3
		c8.3-1.4,26.7-1.2,40-5.2c5.3-1.6,10.6-3.8,15.2-5.9c0,5.8-0.9,11.5-2.7,16.8c-10,3.4-28.4,9.2-36.6,9.7
		c-7.6,0.5-31.1,8.9-46.5,14.7C24.6,98.8,19.7,92.9,16.3,85.9z"/>
	<path id="XMLID_9_" fill-rule="evenodd" clip-rule="evenodd" fill="#D3B17F" d="M16.3,85.9l2.3-0.7C24.2,91.8,31.5,97,39.8,100
		c-3.3,1.2-6.5,2.4-9.4,3.5c-5.2-4.2-9.5-9.3-12.8-15.2l-0.1-0.1c-0.1-0.2-0.2-0.4-0.3-0.6C16.9,87.1,16.6,86.5,16.3,85.9L16.3,85.9
		z M105.1,66.8c3.9-1.4,7.7-3,11-4.5l0,0.3c0,3.1-0.3,6.2-0.8,9.2l-0.1,0.3c0,0.3-0.1,0.5-0.1,0.7c-0.4,2.1-1,4.3-1.7,6.3
		c-4.7,1.6-11.3,3.7-17.8,5.6C100,79.5,103.2,73.4,105.1,66.8z"/>
	<path id="XMLID_12_" fill-rule="evenodd" clip-rule="evenodd" fill="#6F281B" d="M12.5,62.5c0,0,18.2-6.2,25.1-8.4
		c6.8-2.2,11.8-12,19.7-15.1c7-2.8,27.3-9.2,43.1-14.1c3.3,3.3,6.3,7,8.6,11.1L88.5,48.5L11.2,69c0-0.2-0.1-0.5-0.1-0.7
		c-0.1-1.1-0.2-2.1-0.3-3.2L12.5,62.5z"/>
	<path id="XMLID_13_" fill-rule="evenodd" clip-rule="evenodd" fill="#DF5B26" d="M23.4,96.7c9.9-3.6,31.1-11.2,35.4-12.5
		c5.7-1.8,17,5.3,30.5-0.1c8.2-3.3,18.6-7.9,26-11.4c-0.6,2.9-1.4,5.7-2.4,8.4L45.3,112C36.8,108.8,29.3,103.5,23.4,96.7z"/>
	<path id="XMLID_14_" fill-rule="evenodd" clip-rule="evenodd" fill="#B24826" d="M23.4,96.7l5.7-2.1c8,5.3,17.5,8.4,27.8,8.4
		c3.5,0,7-0.4,10.3-1.1l-21.9,10C36.8,108.8,29.3,103.5,23.4,96.7L23.4,96.7z M99.2,79.9c5.7-2.5,11.4-5.1,16-7.2
		c-0.6,2.9-1.4,5.7-2.4,8.4L87.3,92.8C92,89.2,96,84.9,99.2,79.9z"/>
	<path id="XMLID_17_" fill-rule="evenodd" clip-rule="evenodd" fill="#6F281B" d="M33.3,105.7c4.3-1.9,26.2-11.6,30.9-13.5
		c5.2-2.1,13.3,2.1,23.9-2.5c6.5-2.8,17.9-8.1,25.8-11.8c-6,19.5-23,34.6-44.6,37C56.1,116.3,43.5,112.8,33.3,105.7z"/>
	<path id="XMLID_18_" fill-rule="evenodd" clip-rule="evenodd" fill="#471E12" d="M33.3,105.7c1.6-0.7,5.6-2.5,10.2-4.5
		c4.3,1.2,8.8,1.8,13.4,1.8c14.3,0,27.1-5.9,36.3-15.5c6.4-2.9,14.6-6.7,20.7-9.6c-5.7,18.7-21.5,32.9-41,36.4l0,0
		c-3,0.5-6.1,0.8-9.3,0.8c-3.4,0-6.7-0.3-10-0.9l-0.1,0c-0.3-0.1-0.6-0.1-0.8-0.2l-0.5-0.1l-0.3-0.1
		C45.1,112.3,38.8,109.5,33.3,105.7z"/>
	<path id="XMLID_19_" fill-rule="evenodd" clip-rule="evenodd" fill="#DABD86" d="M111,85.4c-6.6,3.5-24.5,13-27.2,14.5
		c-3.3,1.8-10.6,0.3-20.7,5.7c-3.9,2.1-8.4,5.1-12.4,7.9c-4.3-1.1-8.4-2.7-12.2-4.8c8.5-4.4,20.9-10.8,24.2-12.2
		c5.2-2.3,14.1,1,19.8-1.6l30.4-13.9C112.3,82.6,111.7,84,111,85.4z"/>
	<path id="XMLID_20_" fill-rule="evenodd" clip-rule="evenodd" fill="#B58B5A" d="M110.9,85.4c-6.6,3.5-24.5,13-27.2,14.5
		c-3.3,1.8-10.6,0.3-20.7,5.7c-3.9,2.1-8.4,5.1-12.4,7.9c-4.3-1.1-8.4-2.7-12.2-4.8c3.7-1.9,8.1-4.2,12.1-6.2
		c2.1,0.3,4.2,0.4,6.4,0.4c11.4,0,21.9-3.8,30.4-10.2l25.5-11.7C112.2,82.6,111.6,84,110.9,85.4z"/>
	<path id="XMLID_21_" fill-rule="evenodd" clip-rule="evenodd" fill="#6F281B" d="M14.9,82.8c10-3.4,32-10.8,40.7-12.9
		C67,67,84,71.2,98.3,67.3c6.5-1.8,12.9-4.7,17.9-7.4c0.1,1,0.1,2.1,0.1,3.1c-6.9,3.8-17,8.9-25.3,10.7c-14.1,3-18.8-2.9-41.5,6.6
		c-10.5,4.4-20.8,9.1-28.8,12.8C18.4,89.9,16.4,86.5,14.9,82.8z"/>
	<path id="XMLID_22_" fill-rule="evenodd" clip-rule="evenodd" fill="#471E12" d="M14.9,82.8l1.5-0.5c2.4,3.3,5.2,6.3,8.4,9
		c-1.4,0.6-2.8,1.3-4,1.9C18.4,89.9,16.4,86.5,14.9,82.8L14.9,82.8z M105.6,64.8c3.8-1.5,7.4-3.2,10.5-4.9c0,0.8,0.1,1.7,0.1,2.5
		c0,0.2,0,0.4,0,0.6c-3.3,1.9-7.5,4-11.8,5.9C104.9,67.7,105.3,66.3,105.6,64.8z"/>
	<path id="XMLID_25_" fill-rule="evenodd" clip-rule="evenodd" fill="#DF5B26" d="M16.1,39.6c7.9-2.4,17.2-5.2,20.7-6.5
		c6.4-2.4,8.5-7.7,16-9.8c5.2-1.4,22.6-5.8,33.1-8.4c-2.2-1.1-4.6-2-7-2.7c-10,2.3-25.8,6-33.2,7.7C40,21.1,35.5,20.7,32.4,20
		C25.4,25.1,19.8,31.8,16.1,39.6z"/>
	<path id="XMLID_26_" fill-rule="evenodd" clip-rule="evenodd" fill="#DF5B26" d="M10.9,65.2c11.3-3.1,27.9-7.8,34.3-10.2
		c10.1-3.7,9.4-10,16.1-12.5c6.8-2.4,6.2-2.3,9.2-3.1c3-0.9,9.8,5.7,16.6,3c6.8-2.6,4.6-7.9,9.4-10c2.3-1,5.3-2.3,7.7-3.4
		c3.4,4.1,6.2,8.8,8.2,13.8l-100,32.6c-0.6-2.3-1-4.7-1.3-7.2C11,67.3,11,66.2,10.9,65.2z"/>
	<path id="XMLID_27_" fill-rule="evenodd" clip-rule="evenodd" fill="#B24826" d="M101.7,30.2l2.5-1.1c3.4,4.1,6.2,8.8,8.2,13.8
		l-6,1.9C105.6,39.7,104,34.7,101.7,30.2z"/>
	<path id="XMLID_28_" fill-rule="evenodd" clip-rule="evenodd" fill="#FFEBBC" d="M24.4,51.6c-0.6,2.1-2.8,3.3-4.8,2.6
		c-2.1-0.6-3.3-2.8-2.6-4.8c1.9-6.5,5.2-12.4,9.5-17.6c4.3-5.2,9.7-9.6,15.7-12.8c1.9-1,4.3-0.3,5.3,1.6c1,1.9,0.3,4.3-1.6,5.3
		c-5.1,2.7-9.7,6.4-13.4,10.8C28.8,41.2,26,46.2,24.4,51.6L24.4,51.6z M56.4,22c-2.1,0.5-4.2-0.8-4.7-2.9c-0.5-2.1,0.8-4.2,2.9-4.7
		c1-0.2,2.1-0.4,3.3-0.6c1.1-0.2,2.2-0.3,3.3-0.4c2.1-0.2,4,1.4,4.2,3.5c0.2,2.1-1.4,4-3.5,4.2c-0.9,0.1-1.9,0.2-2.8,0.3
		C58.2,21.7,57.3,21.8,56.4,22z"/>
	<path id="XMLID_31_" fill-rule="evenodd" clip-rule="evenodd" fill="#DF5B26" d="M81,60.9c4.3,0,7.8-3.5,7.8-7.8s-3.5-7.8-7.8-7.8
		c-4.3,0-7.8,3.5-7.8,7.8S76.7,60.9,81,60.9z"/>
	<path id="XMLID_32_" fill-rule="evenodd" clip-rule="evenodd" fill="#DF5B26" d="M71.9,64.5c1.6,0,3-1.3,3-3c0-1.6-1.3-3-3-3
		s-3,1.3-3,3C68.9,63.2,70.2,64.5,71.9,64.5z"/>
	<path id="XMLID_33_" fill-rule="evenodd" clip-rule="evenodd" fill="#DF5B26" d="M93,54.7c0.9,0,1.7-0.7,1.7-1.7
		c0-0.9-0.7-1.7-1.7-1.7c-0.9,0-1.7,0.7-1.7,1.7C91.3,53.9,92.1,54.7,93,54.7z"/>
	<path id="XMLID_34_" fill-rule="evenodd" clip-rule="evenodd" fill="#F5B879" d="M81,57c2.2,0,4-1.8,4-4s-1.8-4-4-4
		c-2.2,0-4,1.8-4,4S78.8,57,81,57z"/>
	<path id="XMLID_35_" fill-rule="evenodd" clip-rule="evenodd" fill="#F5B879" d="M72.6,53.3c1.1,0,2-0.9,2-2c0-1.1-0.9-2-2-2
		s-2,0.9-2,2C70.6,52.4,71.5,53.3,72.6,53.3z"/>
	<path id="XMLID_36_" fill-rule="evenodd" clip-rule="evenodd" fill="#F5B879" d="M86.3,48.7c0.8,0,1.5-0.7,1.5-1.5
		c0-0.8-0.7-1.5-1.5-1.5c-0.8,0-1.5,0.7-1.5,1.5C84.8,48.1,85.5,48.7,86.3,48.7z"/>
	<path id="XMLID_37_" fill-rule="evenodd" clip-rule="evenodd" fill="#DF5B26" d="M74.1,89.4c3.2,0,5.7-2.6,5.7-5.7S77.3,78,74.1,78
		c-3.2,0-5.7,2.6-5.7,5.7S71,89.4,74.1,89.4z"/>
	<path id="XMLID_38_" fill-rule="evenodd" clip-rule="evenodd" fill="#DF5B26" d="M85.3,83.2c1.4,0,2.5-1.1,2.5-2.5
		c0-1.4-1.1-2.5-2.5-2.5c-1.4,0-2.5,1.1-2.5,2.5C82.8,82.1,83.9,83.2,85.3,83.2z"/>
	<path id="XMLID_39_" fill-rule="evenodd" clip-rule="evenodd" fill="#F8E2AE" d="M50.8,92.4c2.8,0,5.1-2.3,5.1-5.1
		c0-2.8-2.3-5.1-5.1-5.1c-2.8,0-5.1,2.3-5.1,5.1C45.7,90.1,48,92.4,50.8,92.4z"/>
	<path id="XMLID_40_" fill-rule="evenodd" clip-rule="evenodd" fill="#6F281B" d="M57.5,74.5c2.8,0,5.1-2.3,5.1-5.1
		c0-2.8-2.3-5.1-5.1-5.1c-2.8,0-5.1,2.3-5.1,5.1C52.4,72.2,54.7,74.5,57.5,74.5z"/>
	<circle id="XMLID_41_" fill-rule="evenodd" clip-rule="evenodd" fill="#6F281B" cx="48.2" cy="68" r="1.3"/>
	<circle id="XMLID_42_" fill-rule="evenodd" clip-rule="evenodd" fill="#6F281B" cx="65" cy="66.6" r="1.3"/>
	<path id="XMLID_43_" fill-rule="evenodd" clip-rule="evenodd" fill="#6F281B" d="M82,36.2c3.2,0,5.9-2.6,5.9-5.9
		c0-3.2-2.6-5.9-5.9-5.9c-3.2,0-5.9,2.6-5.9,5.9C76.2,33.6,78.8,36.2,82,36.2z"/>
	<path id="XMLID_44_" fill-rule="evenodd" clip-rule="evenodd" fill="#F8E2AE" d="M82,33.5c1.7,0,3.1-1.4,3.1-3.1s-1.4-3.1-3.1-3.1
		c-1.7,0-3.1,1.4-3.1,3.1S80.3,33.5,82,33.5z"/>
	<path id="XMLID_45_" fill-rule="evenodd" clip-rule="evenodd" fill="#F8E2AE" d="M78.1,38.1c0.9,0,1.6-0.7,1.6-1.6
		c0-0.9-0.7-1.6-1.6-1.6c-0.9,0-1.6,0.7-1.6,1.6C76.5,37.3,77.2,38.1,78.1,38.1z"/>
	<circle id="XMLID_46_" fill-rule="evenodd" clip-rule="evenodd" fill="#F8E2AE" cx="88.1" cy="31.9" r="0.8"/>
	<path id="XMLID_47_" fill-rule="evenodd" clip-rule="evenodd" fill="#6F281B" d="M90.7,29.7c1.1,0,2-0.9,2-2c0-1.1-0.9-2-2-2
		c-1.1,0-2,0.9-2,2C88.7,28.8,89.6,29.7,90.7,29.7z"/>
	<path id="XMLID_48_" fill-rule="evenodd" clip-rule="evenodd" fill="#6F281B" d="M73.5,31.9c0.6,0,1.1-0.5,1.1-1.1
		c0-0.6-0.5-1.1-1.1-1.1c-0.6,0-1.1,0.5-1.1,1.1C72.4,31.4,72.9,31.9,73.5,31.9z"/>
</g>
</svg>
