<?xml version="1.0" encoding="utf-8"?>
<!-- Generator: Adobe Illustrator 19.0.0, SVG Export Plug-In . SVG Version: 6.00 Build 0)  -->
<svg version="1.1" id="Layer_1" xmlns="http://www.w3.org/2000/svg" xmlns:xlink="http://www.w3.org/1999/xlink" x="0px" y="0px"
	 viewBox="0 0 125 125" enable-background="new 0 0 125 125" xml:space="preserve">
<g>
	<circle id="XMLID_2_" fill-rule="evenodd" clip-rule="evenodd" fill="#A2B9A5" cx="63.1" cy="62.1" r="52.7"/>
	<path id="XMLID_3_" fill-rule="evenodd" clip-rule="evenodd" fill="#7B9186" d="M106.7,52.5c0,27.7-22.5,50.1-50.1,50.1
		c-19.2,0-35.8-10.8-44.3-26.6c6.1,22.3,26.5,38.8,50.8,38.8c29.1,0,52.7-23.6,52.7-52.7c0-17.2-8.2-32.5-21-42.1
		C102.2,28.8,106.7,40.1,106.7,52.5z"/>
	<path id="XMLID_4_" fill-rule="evenodd" clip-rule="evenodd" fill="#C6DCBD" d="M24.4,51.7c-0.6,2.1-2.8,3.2-4.8,2.6
		c-2.1-0.6-3.2-2.8-2.6-4.8c1.9-6.5,5.2-12.4,9.5-17.6c4.3-5.2,9.7-9.6,15.7-12.8c1.9-1,4.3-0.3,5.3,1.6c1,1.9,0.3,4.3-1.6,5.3
		c-5.1,2.7-9.7,6.4-13.4,10.8C28.7,41.2,26,46.2,24.4,51.7L24.4,51.7z M56.4,22.1c-2.1,0.5-4.2-0.8-4.7-2.9
		c-0.5-2.1,0.8-4.2,2.9-4.7c1-0.2,2.1-0.4,3.3-0.6c1.1-0.2,2.2-0.3,3.3-0.4c2.1-0.2,4,1.4,4.2,3.5c0.2,2.1-1.4,4-3.5,4.2
		c-0.9,0.1-1.9,0.2-2.8,0.3C58.2,21.7,57.3,21.9,56.4,22.1z"/>
	<path id="XMLID_7_" fill-rule="evenodd" clip-rule="evenodd" fill="#7B9186" d="M55.2,109.8c4.4,0,8-3.6,8-8c0-4.4-3.6-8-8-8
		c-4.4,0-8,3.6-8,8C47.2,106.2,50.8,109.8,55.2,109.8z"/>
	<path id="XMLID_8_" fill-rule="evenodd" clip-rule="evenodd" fill="#7B9186" d="M67.6,98.5c2.6,0,4.7-2.1,4.7-4.7
		c0-2.6-2.1-4.7-4.7-4.7c-2.6,0-4.7,2.1-4.7,4.7C62.8,96.4,65,98.5,67.6,98.5z"/>
	<path id="XMLID_9_" fill-rule="evenodd" clip-rule="evenodd" fill="#7B9186" d="M44.2,98.4c0.9,0,1.7-0.8,1.7-1.7
		c0-0.9-0.8-1.7-1.7-1.7c-0.9,0-1.7,0.8-1.7,1.7C42.6,97.7,43.3,98.4,44.2,98.4z"/>
	<path id="XMLID_10_" fill-rule="evenodd" clip-rule="evenodd" fill="#7B9186" d="M103.9,65.6c5.1,0,9.3-4.2,9.3-9.3
		c0-5.1-4.2-9.3-9.3-9.3c-5.1,0-9.3,4.2-9.3,9.3C94.6,61.5,98.8,65.6,103.9,65.6z"/>
	<path id="XMLID_11_" fill-rule="evenodd" clip-rule="evenodd" fill="#A2B9A5" d="M103.9,61.9c3,0,5.5-2.5,5.5-5.5
		c0-3-2.5-5.5-5.5-5.5c-3,0-5.5,2.5-5.5,5.5C98.3,59.4,100.8,61.9,103.9,61.9z"/>
	<path id="XMLID_12_" fill-rule="evenodd" clip-rule="evenodd" fill="#7B9186" d="M96,75.2c2.3,0,4.1-1.9,4.1-4.1
		c0-2.3-1.9-4.1-4.1-4.1s-4.1,1.9-4.1,4.1C91.9,73.4,93.7,75.2,96,75.2z"/>
	<path id="XMLID_13_" fill-rule="evenodd" clip-rule="evenodd" fill="#7B9186" d="M105.1,45.2c1.5,0,2.7-1.2,2.7-2.7
		c0-1.5-1.2-2.7-2.7-2.7c-1.5,0-2.7,1.2-2.7,2.7C102.4,43.9,103.6,45.2,105.1,45.2z"/>
	<path id="XMLID_14_" fill-rule="evenodd" clip-rule="evenodd" fill="#A2B9A5" d="M89.8,99.8c5,0,9-4,9-9c0-5-4-9-9-9c-5,0-9,4-9,9
		C80.8,95.8,84.8,99.8,89.8,99.8z"/>
	<path id="XMLID_15_" fill-rule="evenodd" clip-rule="evenodd" fill="#A2B9A5" d="M81.3,103.9c1.4,0,2.6-1.2,2.6-2.6
		c0-1.4-1.2-2.6-2.6-2.6c-1.4,0-2.6,1.2-2.6,2.6C78.7,102.7,79.9,103.9,81.3,103.9z"/>
	<circle id="XMLID_16_" fill-rule="evenodd" clip-rule="evenodd" fill="#A2B9A5" cx="100.5" cy="84.6" r="1.3"/>
	<path id="XMLID_17_" fill-rule="evenodd" clip-rule="evenodd" fill="#7B9186" d="M93.7,81.7c0.9,0,1.7-0.8,1.7-1.7
		c0-0.9-0.8-1.7-1.7-1.7c-0.9,0-1.7,0.8-1.7,1.7C92,80.9,92.8,81.7,93.7,81.7z"/>
	<path id="XMLID_18_" fill-rule="evenodd" clip-rule="evenodd" fill="#C6DCBD" d="M29.7,51.8c0.9,0,1.7-0.8,1.7-1.7
		c0-0.9-0.8-1.7-1.7-1.7c-0.9,0-1.7,0.8-1.7,1.7C28.1,51.1,28.8,51.8,29.7,51.8z"/>
	<path id="XMLID_19_" fill-rule="evenodd" clip-rule="evenodd" fill="#C6DCBD" d="M37.5,80.7c5.5,0,10.1-4.5,10.1-10.1
		c0-5.5-4.5-10.1-10.1-10.1S27.4,65,27.4,70.6C27.4,76.1,31.9,80.7,37.5,80.7z"/>
	<path id="XMLID_20_" fill-rule="evenodd" clip-rule="evenodd" fill="#A2B9A5" d="M37.5,77.7c3.9,0,7.1-3.2,7.1-7.1
		c0-3.9-3.2-7.1-7.1-7.1c-3.9,0-7.1,3.2-7.1,7.1C30.4,74.5,33.6,77.7,37.5,77.7z"/>
	<path id="XMLID_21_" fill-rule="evenodd" clip-rule="evenodd" fill="#C6DCBD" d="M36.9,57.9c2.1,0,3.8-1.7,3.8-3.8
		s-1.7-3.8-3.8-3.8c-2.1,0-3.8,1.7-3.8,3.8S34.9,57.9,36.9,57.9z"/>
	<path id="XMLID_22_" fill-rule="evenodd" clip-rule="evenodd" fill="#C6DCBD" d="M72.2,34.7c2.1,0,3.8-1.7,3.8-3.8
		s-1.7-3.8-3.8-3.8c-2.1,0-3.8,1.7-3.8,3.8S70.2,34.7,72.2,34.7z"/>
	<path id="XMLID_23_" fill-rule="evenodd" clip-rule="evenodd" fill="#C6DCBD" d="M54.9,29c1,0,1.9-0.8,1.9-1.9c0-1-0.8-1.9-1.9-1.9
		c-1,0-1.9,0.8-1.9,1.9C53,28.1,53.9,29,54.9,29z"/>
	<path id="XMLID_24_" fill-rule="evenodd" clip-rule="evenodd" fill="#C6DCBD" d="M69.3,67.2c2.8,0,5.1-2.3,5.1-5.1
		c0-2.8-2.3-5.1-5.1-5.1c-2.8,0-5.1,2.3-5.1,5.1C64.2,64.9,66.5,67.2,69.3,67.2z"/>
</g>
</svg>
