<?xml version="1.0" encoding="utf-8"?>
<!-- Generator: Adobe Illustrator 19.0.0, SVG Export Plug-In . SVG Version: 6.00 Build 0)  -->
<svg version="1.1" id="Layer_1" xmlns="http://www.w3.org/2000/svg" xmlns:xlink="http://www.w3.org/1999/xlink" x="0px" y="0px"
	 viewBox="0 0 125 125" enable-background="new 0 0 125 125" xml:space="preserve">
<g>
	<circle id="XMLID_26_" fill-rule="evenodd" clip-rule="evenodd" fill="#6C7A71" cx="62.9" cy="62.9" r="52.4"/>
	<circle id="XMLID_25_" fill-rule="evenodd" clip-rule="evenodd" fill="#ADB5A6" cx="62.9" cy="62.9" r="47.8"/>
	<path id="XMLID_24_" fill-rule="evenodd" clip-rule="evenodd" fill="#99A592" d="M102.4,54.1c0,25.1-20.4,45.5-45.5,45.5
		c-17.4,0-32.5-9.8-40.1-24.1c5.5,20.3,24.1,35.2,46.1,35.2c26.4,0,47.8-21.4,47.8-47.8c0-15.6-7.5-29.4-19-38.1
		C98.3,32.7,102.4,42.9,102.4,54.1z"/>
	<path id="XMLID_21_" fill-rule="evenodd" clip-rule="evenodd" fill="#6C7A71" d="M27.8,53.4c-0.6,1.9-2.5,2.9-4.4,2.4
		c-1.9-0.6-2.9-2.5-2.4-4.4c1.7-5.9,4.7-11.3,8.6-15.9c3.9-4.7,8.8-8.7,14.2-11.6c1.7-0.9,3.9-0.2,4.8,1.5c0.9,1.7,0.2,3.9-1.5,4.8
		C42.4,32.6,38.3,36,35,40C31.7,43.9,29.2,48.5,27.8,53.4L27.8,53.4z M56.8,26.6c-1.9,0.4-3.8-0.8-4.2-2.7c-0.4-1.9,0.8-3.8,2.7-4.2
		c0.9-0.2,1.9-0.4,2.9-0.6c1-0.2,2-0.3,3-0.4c1.9-0.2,3.7,1.3,3.8,3.2c0.2,1.9-1.3,3.7-3.2,3.8c-0.8,0.1-1.7,0.2-2.5,0.3
		C58.4,26.2,57.6,26.4,56.8,26.6z"/>
	<path id="XMLID_20_" fill-rule="evenodd" clip-rule="evenodd" fill="#99A592" d="M55.7,106.1c4,0,7.3-3.3,7.3-7.3
		c0-4-3.3-7.3-7.3-7.3c-4,0-7.3,3.3-7.3,7.3C48.4,102.8,51.7,106.1,55.7,106.1z"/>
	<path id="XMLID_19_" fill-rule="evenodd" clip-rule="evenodd" fill="#99A592" d="M66.9,95.9c2.4,0,4.3-1.9,4.3-4.3
		c0-2.4-1.9-4.3-4.3-4.3s-4.3,1.9-4.3,4.3C62.6,93.9,64.5,95.9,66.9,95.9z"/>
	<path id="XMLID_18_" fill-rule="evenodd" clip-rule="evenodd" fill="#99A592" d="M45.8,95.8c0.8,0,1.5-0.7,1.5-1.5
		c0-0.8-0.7-1.5-1.5-1.5s-1.5,0.7-1.5,1.5C44.2,95.1,44.9,95.8,45.8,95.8z"/>
	<path id="XMLID_17_" fill-rule="evenodd" clip-rule="evenodd" fill="#99A592" d="M99.8,66.1c4.6,0,8.4-3.8,8.4-8.4
		c0-4.6-3.8-8.4-8.4-8.4s-8.4,3.8-8.4,8.4C91.4,62.3,95.2,66.1,99.8,66.1z"/>
	<path id="XMLID_16_" fill-rule="evenodd" clip-rule="evenodd" fill="#ADB5A6" d="M99.8,62.7c2.8,0,5-2.2,5-5c0-2.8-2.2-5-5-5
		s-5,2.2-5,5C94.8,60.4,97.1,62.7,99.8,62.7z"/>
	<path id="XMLID_15_" fill-rule="evenodd" clip-rule="evenodd" fill="#99A592" d="M92.7,74.8c2.1,0,3.8-1.7,3.8-3.7
		c0-2.1-1.7-3.8-3.8-3.8c-2.1,0-3.8,1.7-3.8,3.8C88.9,73.1,90.6,74.8,92.7,74.8z"/>
	<path id="XMLID_14_" fill-rule="evenodd" clip-rule="evenodd" fill="#99A592" d="M100.9,47.5c1.4,0,2.5-1.1,2.5-2.5
		c0-1.4-1.1-2.5-2.5-2.5c-1.4,0-2.5,1.1-2.5,2.5C98.5,46.4,99.6,47.5,100.9,47.5z"/>
	<path id="XMLID_13_" fill-rule="evenodd" clip-rule="evenodd" fill="#ADB5A6" d="M87,97c4.5,0,8.2-3.7,8.2-8.2
		c0-4.5-3.7-8.2-8.2-8.2c-4.5,0-8.2,3.7-8.2,8.2C78.9,93.4,82.5,97,87,97z"/>
	<path id="XMLID_12_" fill-rule="evenodd" clip-rule="evenodd" fill="#ADB5A6" d="M79.3,100.7c1.3,0,2.3-1.1,2.3-2.3
		S80.6,96,79.3,96C78,96,77,97.1,77,98.4S78,100.7,79.3,100.7z"/>
	<circle id="XMLID_11_" fill-rule="evenodd" clip-rule="evenodd" fill="#ADB5A6" cx="96.8" cy="83.2" r="1.2"/>
	<path id="XMLID_10_" fill-rule="evenodd" clip-rule="evenodd" fill="#99A592" d="M90.6,80.6c0.8,0,1.5-0.7,1.5-1.5
		c0-0.8-0.7-1.5-1.5-1.5c-0.8,0-1.5,0.7-1.5,1.5C89.1,79.9,89.7,80.6,90.6,80.6z"/>
	<path id="XMLID_9_" fill-rule="evenodd" clip-rule="evenodd" fill="#707F72" d="M25.6,68c0.8,0,1.5-0.7,1.5-1.5
		c0-0.8-0.7-1.5-1.5-1.5c-0.8,0-1.5,0.7-1.5,1.5C24.1,67.3,24.8,68,25.6,68z"/>
	<path id="XMLID_8_" fill-rule="evenodd" clip-rule="evenodd" fill="#6C7A71" d="M37.3,85.9c5,0,9.1-4.1,9.1-9.1
		c0-5-4.1-9.1-9.1-9.1c-5,0-9.1,4.1-9.1,9.1C28.2,81.8,32.3,85.9,37.3,85.9z"/>
	<path id="XMLID_7_" fill-rule="evenodd" clip-rule="evenodd" fill="#ADB5A6" d="M37.3,83.2c3.5,0,6.4-2.9,6.4-6.4
		c0-3.5-2.9-6.4-6.4-6.4c-3.5,0-6.4,2.9-6.4,6.4C30.9,80.3,33.8,83.2,37.3,83.2z"/>
	<path id="XMLID_6_" fill-rule="evenodd" clip-rule="evenodd" fill="#6C7A71" d="M83.9,46.6c1.9,0,3.4-1.5,3.4-3.4
		c0-1.9-1.5-3.4-3.4-3.4c-1.9,0-3.4,1.5-3.4,3.4C80.5,45.1,82,46.6,83.9,46.6z"/>
	<path id="XMLID_5_" fill-rule="evenodd" clip-rule="evenodd" fill="#6C7A71" d="M55,54.6c1.9,0,3.4-1.5,3.4-3.4
		c0-1.9-1.5-3.4-3.4-3.4c-1.9,0-3.4,1.5-3.4,3.4C51.6,53.1,53.2,54.6,55,54.6z"/>
	<circle id="XMLID_4_" fill-rule="evenodd" clip-rule="evenodd" fill="#6C7A71" cx="55.4" cy="31.1" r="1.7"/>
	<path id="XMLID_3_" fill-rule="evenodd" clip-rule="evenodd" fill="#6C7A71" d="M68.5,67.5c2.6,0,4.6-2.1,4.6-4.6
		c0-2.6-2.1-4.6-4.6-4.6c-2.6,0-4.6,2.1-4.6,4.6C63.9,65.4,66,67.5,68.5,67.5z"/>
	<path id="XMLID_2_" fill-rule="evenodd" clip-rule="evenodd" fill="#6C7A71" d="M89.2,23.1c-1.5,2.9-4.6,4.8-8.1,4.8
		c-5,0-9.1-4.1-9.1-9.1c0-0.9,0.1-1.8,0.4-2.7C78.5,17.3,84.2,19.7,89.2,23.1z"/>
	<path id="XMLID_27_" fill-rule="evenodd" clip-rule="evenodd" fill="#ADB5A6" d="M86.9,21.6c-1.1,2.1-3.2,3.6-5.7,3.6
		c-3.5,0-6.4-2.9-6.4-6.4c0-0.7,0.1-1.4,0.3-2.1C79.3,17.8,83.2,19.5,86.9,21.6z"/>
</g>
</svg>
