<?xml version="1.0" encoding="utf-8"?>
<!-- Generator: Adobe Illustrator 19.0.0, SVG Export Plug-In . SVG Version: 6.00 Build 0)  -->
<svg version="1.1" id="Layer_1" xmlns="http://www.w3.org/2000/svg" xmlns:xlink="http://www.w3.org/1999/xlink" x="0px" y="0px"
	 viewBox="0 0 125 125" enable-background="new 0 0 125 125" xml:space="preserve">
<g>
	<circle id="XMLID_2_" fill-rule="evenodd" clip-rule="evenodd" fill="#55BAC3" cx="63.1" cy="62.9" r="52.7"/>
	<path id="XMLID_3_" fill-rule="evenodd" clip-rule="evenodd" fill="#A6DAE7" d="M24.4,52.4c-0.6,2.1-2.8,3.2-4.8,2.6
		c-2.1-0.6-3.2-2.8-2.6-4.8c1.9-6.5,5.2-12.4,9.5-17.6c4.3-5.2,9.7-9.6,15.7-12.8c1.9-1,4.3-0.3,5.3,1.6c1,1.9,0.3,4.3-1.6,5.3
		c-5.1,2.7-9.7,6.4-13.4,10.8C28.7,42,26,47,24.4,52.4L24.4,52.4z M56.4,22.8c-2.1,0.5-4.2-0.8-4.7-2.9c-0.5-2.1,0.8-4.2,2.9-4.7
		c1-0.2,2.1-0.4,3.3-0.6c1.1-0.2,2.2-0.3,3.3-0.4c2.1-0.2,4,1.4,4.2,3.5c0.2,2.1-1.4,4-3.5,4.2c-0.9,0.1-1.9,0.2-2.8,0.3
		C58.2,22.5,57.3,22.6,56.4,22.8z"/>
	<path id="XMLID_6_" fill-rule="evenodd" clip-rule="evenodd" fill="#3FA3AA" d="M106.7,53.2c0,27.7-22.5,50.2-50.1,50.2
		c-19.2,0-35.8-10.8-44.3-26.6c6.1,22.3,26.5,38.8,50.8,38.8c29.1,0,52.7-23.6,52.7-52.7c0-17.2-8.2-32.5-21-42.1
		C102.2,29.5,106.7,40.9,106.7,53.2z"/>
	<path id="XMLID_7_" fill-rule="evenodd" clip-rule="evenodd" fill="#A9D0C0" d="M15.9,39.6c-1.1,2.3-2.1,4.7-2.9,7.2l12-3.2
		c6.6-1.8,12,0.9,15.4,1.9c3.4,1,9.7,2.8,13.7,3.8c4,1,9.2,0.4,15.2-1.2c3.9-1.1,25.6-6.9,39.9-10.8c-4.1-7.4-10-13.6-16.8-18.2
		c-17.6,4.8-46,12.5-52.3,14.1L15.9,39.6L15.9,39.6z M10.7,68.5l14.5-3.9c7.5-2,13.9,5.8,25.8,2.6c8.9-2.4,45.5-12.3,63.2-17.1
		c1.1,4.6,1.7,9.2,1.6,13.8c-17.5,4.7-50.5,13.7-55.4,15c-6.9,1.8-4.4,8-15.2,10.9l-23,6.2c-1.2-1.5-2.4-3.2-3.5-4.8L34.2,87
		c8.7-2.3,10.6-5.9,11.3-8.1c0.7-2.2-0.7-3.1-3.1-3.6c-2.3-0.5-8.9-1.8-14.3-0.3L13,79c-0.1-0.4-0.2-0.7-0.3-1.1
		C11.7,74.8,11.1,71.6,10.7,68.5L10.7,68.5z M32.9,106.1c2.3,1.6,4.8,3.1,7.3,4.3c1.3-1.7,2.8-3.5,4-5c2.9-3.6,6.6-4.7,9.9-5.6
		c3.3-0.9,7.2-2.1,14.4-4.1c7.2-1.9,29.9-8.6,36.6-8.3c1.3,0.1,2.8,0.2,4.4,0.4c1.4-2.6,2.6-5.4,3.5-8.2c-1.1-0.2-2-0.3-2.6-0.3
		c-3.3-0.3-4.4-1-12.9,1.3c-8.5,2.3-38,10-44.3,11.7c-6.3,1.7-8.1,2.9-12.1,6.5C38.8,100.9,35.3,104,32.9,106.1z"/>
	<path id="XMLID_11_" fill-rule="evenodd" clip-rule="evenodd" fill="#97C7B3" d="M104.5,38.4l4.6-1.3l-0.2-0.3l-0.3-0.5l0-0.1
		c-3.3-5.6-7.6-10.5-12.6-14.6l-0.2-0.1l-0.2-0.2c-0.3-0.2-0.6-0.4-0.8-0.6C99.2,25.9,102.5,31.9,104.5,38.4L104.5,38.4z
		 M106.7,53.2c0,4.7-0.7,9.3-1.9,13.7l11-3c0-0.3,0-0.7,0-1c0-2.1-0.1-4.2-0.4-6.3l0-0.2l0-0.2c-0.3-2-0.6-4-1.1-6l-7.5,2
		C106.7,52.5,106.7,52.9,106.7,53.2L106.7,53.2z M98.9,80.2c-2.2,3.5-4.9,6.7-8,9.6c6-1.4,11.5-2.5,14.3-2.4
		c1.3,0.1,2.8,0.2,4.4,0.4c1.4-2.6,2.6-5.4,3.5-8.2c-1.1-0.2-2-0.3-2.6-0.3C107.3,79,106.2,78.3,98.9,80.2L98.9,80.2z M47.3,102.5
		c-2.7-0.5-5.4-1.2-7.9-2.2c-2.1,1.9-4.6,4.1-6.4,5.7c2.3,1.6,4.8,3.1,7.3,4.3c1.3-1.7,2.8-3.5,4-5
		C45.2,104.2,46.2,103.2,47.3,102.5L47.3,102.5z M27.9,94.4c-1.9-1.3-3.7-2.8-5.4-4.3l-3.9,1c1.1,1.7,2.2,3.3,3.5,4.8L27.9,94.4
		L27.9,94.4z M13.5,78.9c-0.4-0.7-0.8-1.3-1.1-2c0.1,0.3,0.2,0.7,0.3,1c0.1,0.4,0.2,0.7,0.3,1.1L13.5,78.9z"/>
	<path id="XMLID_18_" fill-rule="evenodd" clip-rule="evenodd" fill="#92D1DE" d="M18.7,45.3c1.1-2.6,2.4-5.1,3.9-7.5l12.7-3.4
		c-1,1-2,2.1-3,3.2c-1.4,1.7-2.7,3.5-3.8,5.4c-1.2,0.1-2.4,0.2-3.6,0.6L18.7,45.3z"/>
	<path id="XMLID_19_" fill-rule="evenodd" clip-rule="evenodd" fill="#A9D0C0" d="M75.2,68.1c4.2,0,7.7-3.5,7.7-7.7
		c0-4.2-3.5-7.7-7.7-7.7c-4.2,0-7.7,3.5-7.7,7.7C67.5,64.6,71,68.1,75.2,68.1z"/>
	<path id="XMLID_20_" fill-rule="evenodd" clip-rule="evenodd" fill="#A9D0C0" d="M62,62.4c1.9,0,3.4-1.5,3.4-3.4
		c0-1.9-1.5-3.4-3.4-3.4c-1.9,0-3.4,1.5-3.4,3.4C58.6,60.9,60.1,62.4,62,62.4z"/>
	<path id="XMLID_21_" fill-rule="evenodd" clip-rule="evenodd" fill="#A9D0C0" d="M85.9,56.3c0.8,0,1.5-0.7,1.5-1.5
		c0-0.8-0.7-1.5-1.5-1.5c-0.8,0-1.5,0.7-1.5,1.5C84.4,55.6,85.1,56.3,85.9,56.3z"/>
	<path id="XMLID_22_" fill-rule="evenodd" clip-rule="evenodd" fill="#A9D0C0" d="M70.2,100.2c3.2,0,5.9-2.6,5.9-5.9
		c0-3.2-2.6-5.9-5.9-5.9c-3.2,0-5.9,2.6-5.9,5.9C64.3,97.5,67,100.2,70.2,100.2z"/>
	<path id="XMLID_23_" fill-rule="evenodd" clip-rule="evenodd" fill="#55BAC3" d="M70.2,97.5c1.8,0,3.2-1.4,3.2-3.2
		c0-1.8-1.4-3.2-3.2-3.2c-1.8,0-3.2,1.4-3.2,3.2C67,96,68.4,97.5,70.2,97.5z"/>
	<path id="XMLID_24_" fill-rule="evenodd" clip-rule="evenodd" fill="#55BAC3" d="M79.4,87.6c1.4,0,2.5-1.1,2.5-2.5
		c0-1.4-1.1-2.5-2.5-2.5c-1.4,0-2.5,1.1-2.5,2.5C76.9,86.5,78,87.6,79.4,87.6z"/>
	<path id="XMLID_25_" fill-rule="evenodd" clip-rule="evenodd" fill="#55BAC3" d="M74.6,91.6c0.6,0,1.1-0.5,1.1-1.1
		c0-0.6-0.5-1.1-1.1-1.1c-0.6,0-1.1,0.5-1.1,1.1C73.5,91,74,91.6,74.6,91.6z"/>
	<path id="XMLID_26_" fill-rule="evenodd" clip-rule="evenodd" fill="#55BAC3" d="M62.4,74.1c2,0,3.6-1.6,3.6-3.6
		c0-2-1.6-3.6-3.6-3.6c-2,0-3.6,1.6-3.6,3.6C58.8,72.5,60.4,74.1,62.4,74.1z"/>
	<path id="XMLID_27_" fill-rule="evenodd" clip-rule="evenodd" fill="#55BAC3" d="M92.2,48.1c4.4,0,8-3.6,8-8c0-4.4-3.6-8-8-8
		c-4.4,0-8,3.6-8,8C84.1,44.5,87.7,48.1,92.2,48.1z"/>
	<path id="XMLID_28_" fill-rule="evenodd" clip-rule="evenodd" fill="#55BAC3" d="M77.9,43.2c1.8,0,3.3-1.5,3.3-3.3
		c0-1.8-1.5-3.3-3.3-3.3c-1.8,0-3.3,1.5-3.3,3.3C74.6,41.8,76.1,43.2,77.9,43.2z"/>
	<path id="XMLID_29_" fill-rule="evenodd" clip-rule="evenodd" fill="#55BAC3" d="M67.9,44.3c1.2,0,2.1-0.9,2.1-2.1
		c0-1.2-0.9-2.1-2.1-2.1c-1.2,0-2.1,0.9-2.1,2.1C65.8,43.4,66.8,44.3,67.9,44.3z"/>
	<path id="XMLID_30_" fill-rule="evenodd" clip-rule="evenodd" fill="#55BAC3" d="M96.7,30.9c0.7,0,1.3-0.6,1.3-1.3
		c0-0.7-0.6-1.3-1.3-1.3c-0.7,0-1.3,0.6-1.3,1.3C95.4,30.3,96,30.9,96.7,30.9z"/>
	<path id="XMLID_31_" fill-rule="evenodd" clip-rule="evenodd" fill="#A9D0C0" d="M92.2,44.5c2.4,0,4.4-2,4.4-4.4
		c0-2.4-2-4.4-4.4-4.4c-2.4,0-4.4,2-4.4,4.4C87.7,42.5,89.7,44.5,92.2,44.5z"/>
</g>
</svg>
